<svg width="17" height="17" viewBox="0 0 17 17" fill="none" xmlns="http://www.w3.org/2000/svg">
<path d="M15.8246 7.25257L8.63121 0.305986C8.1996 -0.110809 7.634 -0.100936 7.21721 0.330668C6.80041 0.762272 6.81028 1.32787 7.24189 1.74467L12.7089 7.02407L0.972688 7.22892C0.407089 7.2388 -0.00970732 7.6704 0.000165575 8.236C0.0100385 8.8016 0.441642 9.21839 1.00724 9.20852L12.7434 9.00367L7.46402 14.4706C7.04723 14.9023 7.0571 15.4679 7.4887 15.8846C7.92031 16.3014 8.48591 16.2916 8.9027 15.86L12.376 12.2633L15.8493 8.66657C16.2661 8.23496 16.2562 7.66937 15.8246 7.25257Z" fill="#0755E9"/>
</svg>
