<svg width="805" height="735" viewBox="0 0 805 735" fill="none" xmlns="http://www.w3.org/2000/svg">
<path d="M513.905 320.126L514.839 320.839L514.838 320.84C554.011 351.144 561.64 407.404 531.747 447.073L531.036 448.005C501.205 486.565 446.224 494.561 406.674 466.288L405.743 465.613L404.8 464.913L308.096 392.041L307.162 391.327L307.163 391.327C268.602 361.497 260.606 306.515 288.878 266.965L289.553 266.034L290.252 265.094C320.145 225.425 376.329 217.25 416.257 246.552L417.2 247.254L513.905 320.126ZM487.822 413.974C475.975 429.696 453.625 432.837 437.903 420.989L341.194 348.114C325.471 336.266 322.33 313.916 334.177 298.194C346.025 282.471 368.376 279.33 384.098 291.178L480.807 364.053C496.529 375.901 499.67 398.251 487.822 413.974ZM488.621 414.575C500.801 398.412 497.572 375.435 481.409 363.254L384.7 290.379C368.536 278.199 345.559 281.428 333.378 297.592C321.199 313.755 324.428 336.732 340.592 348.913L437.301 421.788C453.464 433.968 476.441 430.739 488.621 414.575Z" stroke="#0755E9"/>
<path d="M741.202 543.017L742.013 543.867L742.012 543.868C775.962 579.927 774.696 636.688 738.966 671.193L738.118 672.001C702.622 705.42 647.067 704.717 612.427 670.605L611.613 669.793L610.791 668.953L526.677 581.851L525.866 581L525.867 581C492.448 545.505 493.151 489.949 527.262 455.309L528.074 454.495L528.912 453.675C564.642 419.171 621.414 419.887 656.266 455.074L657.088 455.915L741.202 543.017ZM700.76 631.629C686.598 645.304 664.033 644.91 650.357 630.749L566.239 543.642C552.564 529.481 552.957 506.915 567.118 493.239C581.28 479.563 603.847 479.957 617.522 494.119L701.64 581.226C715.316 595.387 714.921 617.954 700.76 631.629ZM701.454 632.348C716.013 618.289 716.419 595.09 702.36 580.531L618.242 493.424C604.182 478.865 580.982 478.461 566.423 492.52C551.865 506.579 551.461 529.778 565.52 544.337L649.638 631.444C663.697 646.002 686.896 646.407 701.454 632.348Z" stroke="#0755E9"/>
<path d="M278.905 128.126L279.839 128.839L279.838 128.84C319.011 159.144 326.64 215.404 296.747 255.073L296.036 256.005C266.205 294.565 211.224 302.561 171.674 274.288L170.743 273.613L169.8 272.913L73.0961 200.041L72.1617 199.327L72.1625 199.327C33.602 169.497 25.6057 114.515 53.8785 74.9652L54.553 74.0343L55.252 73.0937C85.1448 33.4247 141.329 25.2504 181.257 54.5523L182.2 55.2544L278.905 128.126ZM252.822 221.974C240.975 237.696 218.625 240.837 202.903 228.989L106.194 156.114C90.4711 144.266 87.3295 121.916 99.177 106.194C111.025 90.471 133.376 87.3299 149.098 99.1776L245.807 172.053C261.529 183.901 264.67 206.251 252.822 221.974ZM253.621 222.575C265.801 206.412 262.572 183.435 246.409 171.254L149.7 98.379C133.536 86.1989 110.559 89.4282 98.3784 105.592C86.1985 121.755 89.4282 144.732 105.592 156.913L202.301 229.788C218.464 241.968 241.441 238.739 253.621 222.575Z" stroke="#0755E9"/>
<path d="M515.562 402.684L577.846 462.831C586.984 471.655 587.238 486.216 578.414 495.353L575.058 498.828C566.234 507.966 551.673 508.22 542.536 499.396L480.252 439.249C471.114 430.425 470.86 415.864 479.684 406.727L483.04 403.252C491.864 394.114 506.425 393.86 515.562 402.684Z" stroke="#0755E9"/>
<path d="M274.566 207.178L341.856 261.667C351.727 269.661 353.25 284.144 345.256 294.016L342.215 297.77C334.221 307.642 319.738 309.164 309.867 301.17L242.577 246.681C232.706 238.687 231.184 224.204 239.177 214.332L242.218 210.578C250.212 200.706 264.695 199.184 274.566 207.178Z" stroke="#0755E9"/>
</svg>
