<svg width="283" height="251" viewBox="0 0 283 251" fill="none" xmlns="http://www.w3.org/2000/svg">
<path d="M171.333 188.836L140.578 234.433L40.1873 166.719L70.9429 121.122L171.333 188.836ZM221.512 179.082C232.675 162.532 228.308 140.066 211.759 128.903L111.368 61.1889C94.8181 50.0258 72.3515 54.3928 61.1884 70.9428C50.0256 87.4928 54.393 109.959 70.9429 121.122L40.1873 166.719L39.2144 166.053C-1.39285 137.908 -12.168 82.4752 14.9392 41.168L15.5913 40.1872C43.5203 -1.21929 99.507 -12.3832 141.142 14.9391L142.124 15.5918L242.514 83.306L243.486 83.9711C284.416 112.339 295.038 168.431 267.109 209.838L266.444 210.81C238.299 251.417 182.866 262.192 141.559 235.085L140.578 234.433L171.333 188.836C187.883 199.999 210.349 195.632 221.512 179.082Z" fill="#233D7A" fill-opacity="0.28"/>
</svg>
