 <svg width="915" height="983" viewBox="0 0 915 983" fill="none" xmlns="http://www.w3.org/2000/svg">
<g filter="url(#filter0_f_122_84)">
<rect x="101.936" width="303.385" height="182.292" rx="91.146" transform="rotate(34 101.936 0)" fill="black" fill-opacity="0.01"/>
<rect x="109.357" y="38.1763" width="248.385" height="127.292" rx="63.646" transform="rotate(34 109.357 38.1763)" stroke="#233D7A" stroke-opacity="0.28" stroke-width="55"/>
</g>
<g filter="url(#filter1_f_122_84)">
<rect x="101.936" width="303.385" height="182.292" rx="91.146" transform="rotate(34 101.936 0)" fill="black" fill-opacity="0.01"/>
<rect x="109.357" y="38.1763" width="248.385" height="127.292" rx="63.646" transform="rotate(34 109.357 38.1763)" stroke="#233D7A" stroke-opacity="0.28" stroke-width="55"/>
</g>
<rect x="261.617" y="186" width="133.585" height="51.8308" rx="23.5" transform="rotate(39 261.617 186)" fill="black" fill-opacity="0.01"/>
<rect x="261.617" y="186" width="133.585" height="51.8308" rx="23.5" transform="rotate(39 261.617 186)" fill="black" fill-opacity="0.01"/>
<g filter="url(#filter4_f_122_84)">
<rect x="338.709" y="186" width="303.385" height="182.292" rx="91.146" transform="rotate(37 338.709 186)" fill="black" fill-opacity="0.01"/>
<rect x="344.122" y="224.512" width="248.385" height="127.292" rx="63.646" transform="rotate(37 344.122 224.512)" stroke="#233D7A" stroke-opacity="0.28" stroke-width="55"/>
</g>
<rect x="261.619" y="186" width="133.585" height="51.8308" rx="23.5" transform="rotate(39 261.619 186)" fill="black" fill-opacity="0.01"/>
<g filter="url(#filter6_f_122_84)">
<rect x="596.478" y="387" width="303.385" height="182.292" rx="91.146" transform="rotate(54 596.478 387)" fill="black" fill-opacity="0.01"/>
<rect x="590.394" y="425.412" width="248.385" height="127.292" rx="63.646" transform="rotate(54 590.394 425.412)" stroke="#233D7A" stroke-opacity="0.28" stroke-width="55"/>
</g>
<g filter="url(#filter7_f_122_84)">
<rect x="736.478" y="630" width="303.385" height="182.292" rx="91.146" transform="rotate(54 736.478 630)" fill="black" fill-opacity="0.01"/>
<rect x="730.394" y="668.412" width="248.385" height="127.292" rx="63.646" transform="rotate(54 730.394 668.412)" stroke="#233D7A" stroke-opacity="0.28" stroke-width="55"/>
</g>
<rect x="490.005" y="377" width="133.585" height="51.8308" rx="23.5" transform="rotate(44 490.005 377)" fill="black" fill-opacity="0.01"/>
<rect x="679.887" y="621" width="133.585" height="51.8308" rx="23.5" transform="rotate(60 679.887 621)" fill="black" fill-opacity="0.01"/>
<g filter="url(#filter10_f_122_84)">
<rect x="101.936" width="303.385" height="182.292" rx="91.146" transform="rotate(34 101.936 0)" fill="black" fill-opacity="0.01"/>
<rect x="109.357" y="38.1763" width="248.385" height="127.292" rx="63.646" transform="rotate(34 109.357 38.1763)" stroke="#233D7A" stroke-opacity="0.28" stroke-width="55"/>
</g>
<g filter="url(#filter11_f_122_84)">
<rect x="101.936" width="303.385" height="182.292" rx="91.146" transform="rotate(34 101.936 0)" fill="black" fill-opacity="0.01"/>
<rect x="109.357" y="38.1763" width="248.385" height="127.292" rx="63.646" transform="rotate(34 109.357 38.1763)" stroke="#233D7A" stroke-opacity="0.28" stroke-width="55"/>
</g>
<rect x="261.617" y="186" width="133.585" height="51.8308" rx="23.5" transform="rotate(39 261.617 186)" fill="black" fill-opacity="0.01"/>
<rect x="261.617" y="186" width="133.585" height="51.8308" rx="23.5" transform="rotate(39 261.617 186)" fill="black" fill-opacity="0.01"/>
<g filter="url(#filter14_f_122_84)">
<rect x="338.709" y="186" width="303.385" height="182.292" rx="91.146" transform="rotate(37 338.709 186)" fill="black" fill-opacity="0.01"/>
<rect x="344.122" y="224.512" width="248.385" height="127.292" rx="63.646" transform="rotate(37 344.122 224.512)" stroke="#233D7A" stroke-opacity="0.28" stroke-width="55"/>
</g>
<rect x="261.619" y="186" width="133.585" height="51.8308" rx="23.5" transform="rotate(39 261.619 186)" fill="black" fill-opacity="0.01"/>
<g filter="url(#filter16_f_122_84)">
<rect x="596.478" y="387" width="303.385" height="182.292" rx="91.146" transform="rotate(54 596.478 387)" fill="black" fill-opacity="0.01"/>
<rect x="590.394" y="425.412" width="248.385" height="127.292" rx="63.646" transform="rotate(54 590.394 425.412)" stroke="#233D7A" stroke-opacity="0.28" stroke-width="55"/>
</g>
<g filter="url(#filter17_f_122_84)">
<rect x="736.478" y="630" width="303.385" height="182.292" rx="91.146" transform="rotate(54 736.478 630)" fill="black" fill-opacity="0.01"/>
<rect x="730.394" y="668.412" width="248.385" height="127.292" rx="63.646" transform="rotate(54 730.394 668.412)" stroke="#233D7A" stroke-opacity="0.28" stroke-width="55"/>
</g>
<rect x="490.005" y="377" width="133.585" height="51.8308" rx="23.5" transform="rotate(44 490.005 377)" fill="black" fill-opacity="0.01"/>
<rect x="679.887" y="621" width="133.585" height="51.8308" rx="23.5" transform="rotate(60 679.887 621)" fill="black" fill-opacity="0.01"/>
<defs>
<filter id="filter0_f_122_84" x="31.9765" y="31.9765" width="289.501" height="256.825" filterUnits="userSpaceOnUse" color-interpolation-filters="sRGB">
<feFlood flood-opacity="0" result="BackgroundImageFix"/>
<feBlend mode="normal" in="SourceGraphic" in2="BackgroundImageFix" result="shape"/>
<feGaussianBlur stdDeviation="1.7" result="effect1_foregroundBlur_122_84"/>
</filter>
<filter id="filter1_f_122_84" x="31.9765" y="31.9765" width="289.501" height="256.825" filterUnits="userSpaceOnUse" color-interpolation-filters="sRGB">
<feFlood flood-opacity="0" result="BackgroundImageFix"/>
<feBlend mode="normal" in="SourceGraphic" in2="BackgroundImageFix" result="shape"/>
<feGaussianBlur stdDeviation="1.7" result="effect1_foregroundBlur_122_84"/>
</filter>
<filter id="filter4_f_122_84" x="262.097" y="219.094" width="285.812" height="261.978" filterUnits="userSpaceOnUse" color-interpolation-filters="sRGB">
<feFlood flood-opacity="0" result="BackgroundImageFix"/>
<feBlend mode="normal" in="SourceGraphic" in2="BackgroundImageFix" result="shape"/>
<feGaussianBlur stdDeviation="1.7" result="effect1_foregroundBlur_122_84"/>
</filter>
<filter id="filter6_f_122_84" x="481.761" y="419.761" width="260.281" height="287.071" filterUnits="userSpaceOnUse" color-interpolation-filters="sRGB">
<feFlood flood-opacity="0" result="BackgroundImageFix"/>
<feBlend mode="normal" in="SourceGraphic" in2="BackgroundImageFix" result="shape"/>
<feGaussianBlur stdDeviation="1.7" result="effect1_foregroundBlur_122_84"/>
</filter>
<filter id="filter7_f_122_84" x="621.761" y="662.761" width="260.281" height="287.071" filterUnits="userSpaceOnUse" color-interpolation-filters="sRGB">
<feFlood flood-opacity="0" result="BackgroundImageFix"/>
<feBlend mode="normal" in="SourceGraphic" in2="BackgroundImageFix" result="shape"/>
<feGaussianBlur stdDeviation="1.7" result="effect1_foregroundBlur_122_84"/>
</filter>
<filter id="filter10_f_122_84" x="31.9765" y="31.9765" width="289.501" height="256.825" filterUnits="userSpaceOnUse" color-interpolation-filters="sRGB">
<feFlood flood-opacity="0" result="BackgroundImageFix"/>
<feBlend mode="normal" in="SourceGraphic" in2="BackgroundImageFix" result="shape"/>
<feGaussianBlur stdDeviation="1.7" result="effect1_foregroundBlur_122_84"/>
</filter>
<filter id="filter11_f_122_84" x="31.9765" y="31.9765" width="289.501" height="256.825" filterUnits="userSpaceOnUse" color-interpolation-filters="sRGB">
<feFlood flood-opacity="0" result="BackgroundImageFix"/>
<feBlend mode="normal" in="SourceGraphic" in2="BackgroundImageFix" result="shape"/>
<feGaussianBlur stdDeviation="1.7" result="effect1_foregroundBlur_122_84"/>
</filter>
<filter id="filter14_f_122_84" x="262.097" y="219.094" width="285.812" height="261.978" filterUnits="userSpaceOnUse" color-interpolation-filters="sRGB">
<feFlood flood-opacity="0" result="BackgroundImageFix"/>
<feBlend mode="normal" in="SourceGraphic" in2="BackgroundImageFix" result="shape"/>
<feGaussianBlur stdDeviation="1.7" result="effect1_foregroundBlur_122_84"/>
</filter>
<filter id="filter16_f_122_84" x="481.761" y="419.761" width="260.281" height="287.071" filterUnits="userSpaceOnUse" color-interpolation-filters="sRGB">
<feFlood flood-opacity="0" result="BackgroundImageFix"/>
<feBlend mode="normal" in="SourceGraphic" in2="BackgroundImageFix" result="shape"/>
<feGaussianBlur stdDeviation="1.7" result="effect1_foregroundBlur_122_84"/>
</filter>
<filter id="filter17_f_122_84" x="621.761" y="662.761" width="260.281" height="287.071" filterUnits="userSpaceOnUse" color-interpolation-filters="sRGB">
<feFlood flood-opacity="0" result="BackgroundImageFix"/>
<feBlend mode="normal" in="SourceGraphic" in2="BackgroundImageFix" result="shape"/>
<feGaussianBlur stdDeviation="1.7" result="effect1_foregroundBlur_122_84"/>
</filter>
</defs>
</svg>
