<svg width="232" height="62" viewBox="0 0 232 62" fill="none" xmlns="http://www.w3.org/2000/svg">
<path d="M60.3654 0H70.9275V61.0301H60.3654V0ZM107.895 41.5615C107.895 50.9015 99.4004 51.6461 96.8734 51.6461C90.5599 51.6461 89.4112 46.1827 89.4112 42.8871V19.5296H78.8491V42.8382C78.8491 48.6239 80.8137 53.3989 84.2569 56.5822C87.2988 59.3969 91.8564 60.9349 96.7942 60.9349C100.296 60.9349 105.254 59.9267 107.895 57.6979V61.0301H118.457V19.5296H107.895V41.5615ZM139.581 4.88241H129.019V19.5296H121.098V29.2944H129.019V61.0301H139.581V29.2944H147.503V19.5296H139.581V4.88241ZM180.766 48.6215C178.466 50.5329 175.429 51.5924 172.097 51.5924C164.751 51.5924 159.356 46.605 159.356 39.7574C159.356 32.9099 164.579 28.1324 172.097 28.1324C175.371 28.1324 178.466 29.1407 180.824 31.0521L182.427 32.3264L189.548 25.7449L187.766 24.2582C183.575 20.76 178.012 18.7973 172.094 18.7973C158.892 18.7973 149.304 27.6051 149.304 39.7062C149.304 51.756 159.121 60.8787 172.094 60.8787C178.123 60.8787 183.744 58.916 187.882 55.3616L189.604 53.8749L182.371 47.2983L180.766 48.6215ZM227.247 23.1475C224.205 20.3352 220.64 18.7973 215.703 18.7973C212.201 18.7973 208.235 19.8055 205.595 22.0319V0H195.033V61.0301H205.595V38.1682C205.595 28.8282 212.772 28.0861 215.299 28.0861C221.612 28.0861 221.438 33.5519 221.438 36.8426V61.0301H232V36.8939C232 31.1083 230.693 26.3333 227.247 23.1475Z" fill="#0755E9"/>
<path d="M172.243 33.0166C174.269 33.0166 176.211 33.7604 177.643 35.0844C179.075 36.4084 179.88 38.2041 179.88 40.0766C179.88 41.949 179.075 43.7447 177.643 45.0687C176.211 46.3927 174.269 47.1365 172.243 47.1365C170.218 47.1365 168.276 46.3927 166.844 45.0687C165.412 43.7447 164.607 41.949 164.607 40.0766C164.607 38.2041 165.412 36.4084 166.844 35.0844C168.276 33.7604 170.218 33.0166 172.243 33.0166Z" fill="#FF3D2E"/>
<path d="M45.5783 45.7019C41.562 49.5224 36.1067 51.5925 30.3661 51.5925C18.5999 51.5925 10.0446 43.0483 10.0446 31.3208C10.0446 19.5395 18.5999 10.9953 30.3661 10.9953C36.0512 10.9953 41.4458 13.063 45.5228 16.8322L47.1282 18.3189L54.189 11.7912L52.639 10.3045C46.785 4.7312 38.8634 1.70898 30.3661 1.70898C13.031 1.70898 0 14.4447 0 31.3721C0 48.2481 13.0891 60.9326 30.3661 60.9326C38.9215 60.9326 46.8431 57.8567 52.6971 52.2834L54.2471 50.7967L47.2444 44.164L45.5783 45.7019Z" fill="#0755E9"/>
</svg>
