<svg width="130" height="93" viewBox="0 0 130 93" fill="none" xmlns="http://www.w3.org/2000/svg">
<path d="M0 48C0 29.7746 14.7746 15 33 15H97C115.225 15 130 29.7746 130 48C130 66.2254 115.225 81 97 81H33C14.7746 81 0 66.2254 0 48Z" fill="#001B4D"/>
<path d="M51 1C51 0.447716 51.4477 0 52 0H77C77.5523 0 78 0.447715 78 1V19C78 22.866 74.866 26 71 26H59C54.5817 26 51 22.4183 51 18V1Z" fill="#FBFCFE"/>
<path d="M78 92C78 92.5523 77.5523 93 77 93L52 93C51.4477 93 51 92.5523 51 92L51 76C51 72.134 54.134 69 58 69H70C74.4183 69 78 72.5817 78 77V92Z" fill="#FBFCFE"/>
</svg>
