<svg width="581" height="515" viewBox="0 0 581 515" fill="none" xmlns="http://www.w3.org/2000/svg">
<path d="M278.905 128.126L279.839 128.839L279.838 128.84C319.011 159.144 326.64 215.404 296.747 255.073L296.036 256.005C266.205 294.565 211.224 302.561 171.674 274.288L170.743 273.613L169.8 272.913L73.0961 200.041L72.1617 199.327L72.1625 199.327C33.602 169.497 25.6057 114.515 53.8785 74.9652L54.553 74.0343L55.252 73.0937C85.1448 33.4247 141.329 25.2504 181.257 54.5523L182.2 55.2544L278.905 128.126ZM252.822 221.974C240.975 237.696 218.625 240.837 202.903 228.989L106.194 156.114C90.4711 144.266 87.3295 121.916 99.177 106.194C111.025 90.471 133.376 87.3299 149.098 99.1776L245.807 172.053C261.529 183.901 264.67 206.251 252.822 221.974ZM253.621 222.575C265.801 206.412 262.572 183.435 246.409 171.254L149.7 98.379C133.536 86.1989 110.559 89.4282 98.3784 105.592C86.1985 121.755 89.4282 144.732 105.592 156.913L202.301 229.788C218.464 241.968 241.441 238.739 253.621 222.575Z" stroke="#0755E9"/>
<path d="M507.908 314.126L508.842 314.839L508.841 314.84C548.014 345.144 555.643 401.404 525.75 441.073L525.039 442.005C495.208 480.565 440.226 488.561 400.677 460.288L399.746 459.613L398.803 458.913L302.099 386.041L301.165 385.327L301.165 385.327C262.605 355.497 254.609 300.515 282.881 260.965L283.556 260.034L284.255 259.094C314.148 219.425 370.332 211.25 410.26 240.552L411.203 241.254L507.908 314.126ZM481.825 407.974C469.977 423.696 447.628 426.837 431.905 414.989L335.196 342.114C319.474 330.266 316.332 307.916 328.18 292.194C340.028 276.471 362.379 273.33 378.101 285.178L474.81 358.053C490.532 369.901 493.673 392.251 481.825 407.974ZM482.624 408.575C494.804 392.412 491.575 369.435 475.412 357.254L378.703 284.379C362.539 272.199 339.561 275.428 327.381 291.592C315.201 307.755 318.431 330.732 334.595 342.913L431.304 415.788C447.467 427.968 470.444 424.739 482.624 408.575Z" stroke="#0755E9"/>
<path d="M273.567 210.178L340.856 264.667C350.728 272.661 352.25 287.144 344.256 297.016L341.216 300.77C333.222 310.642 318.739 312.164 308.867 304.17L241.578 249.681C231.706 241.687 230.184 227.204 238.178 217.332L241.218 213.578C249.212 203.706 263.695 202.184 273.567 210.178Z" stroke="#0755E9"/>
</svg>
