<svg width="527" height="347" viewBox="0 0 527 347" fill="none" xmlns="http://www.w3.org/2000/svg">
<path d="M224.904 -39.8737L225.838 -39.1612L225.838 -39.1604C265.01 -8.85608 272.64 47.4043 242.747 87.0735L242.035 88.0047C212.204 126.565 157.223 134.561 117.674 106.288L116.743 105.613L115.8 104.913L19.0956 32.0407L18.1612 31.3268L18.162 31.3274C-20.3985 1.49666 -28.3948 -53.4854 -0.122036 -93.0348L0.55254 -93.9657L1.25155 -94.9063C31.1444 -134.575 87.3289 -142.75 127.257 -113.448L128.2 -112.746L224.904 -39.8737ZM198.822 53.9736C186.974 69.6958 164.624 72.8368 148.902 60.9894L52.1931 -11.8861C36.4706 -23.7338 33.329 -46.0839 45.1765 -61.8064C57.0243 -77.529 79.3751 -80.6701 95.0977 -68.8224L191.807 4.05307C207.529 15.9009 210.669 38.2512 198.822 53.9736ZM199.62 54.5754C211.8 38.412 208.572 15.4347 192.408 3.25443L95.6995 -69.621C79.5359 -81.8011 56.5581 -78.5718 44.3779 -62.4082C32.198 -46.2447 35.4278 -23.2675 51.5912 -11.0874L148.3 61.788C164.464 73.9678 187.44 70.7387 199.62 54.5754Z" stroke="#0755E9"/>
<path d="M453.907 146.126L454.841 146.839L454.841 146.84C494.013 177.144 501.643 233.404 471.75 273.073L471.038 274.005C441.207 312.565 386.226 320.561 346.677 292.288L345.746 291.613L344.803 290.913L248.098 218.041L247.164 217.327L247.165 217.327C208.604 187.497 200.608 132.515 228.881 92.9652L229.555 92.0343L230.254 91.0937C260.147 51.4247 316.332 43.2504 356.26 72.5523L357.203 73.2544L453.907 146.126ZM427.825 239.974C415.977 255.696 393.627 258.837 377.905 246.989L281.196 174.114C265.474 162.266 262.332 139.916 274.179 124.194C286.027 108.471 308.378 105.33 324.101 117.178L420.81 190.053C436.532 201.901 439.672 224.251 427.825 239.974ZM428.623 240.575C440.803 224.412 437.575 201.435 421.411 189.254L324.702 116.379C308.539 104.199 285.561 107.428 273.381 123.592C261.201 139.755 264.431 162.732 280.594 174.913L377.303 247.788C393.467 259.968 416.443 256.739 428.623 240.575Z" stroke="#0755E9"/>
<path d="M219.566 42.1776L286.856 96.6673C296.727 104.661 298.25 119.144 290.256 129.016L287.215 132.77C279.221 142.642 264.738 144.164 254.867 136.17L187.577 81.6808C177.706 73.6868 176.184 59.2038 184.177 49.332L187.218 45.5776C195.212 35.7059 209.695 34.1836 219.566 42.1776Z" stroke="#0755E9"/>
</svg>
