<svg width="196" height="178" viewBox="0 0 196 178" fill="none" xmlns="http://www.w3.org/2000/svg">
<path d="M159.387 66.9901L182.293 77.1072L187.088 79.307C197.304 83.9935 197.304 96.0759 187.088 100.762L122.026 130.608C106.937 137.53 88.5626 137.53 73.4735 130.608L8.41219 100.762C-1.80408 96.0759 -1.80405 83.9935 8.41221 79.307L13.2075 77.1072L34.8438 66.9901M164.368 112.036L185.189 120.593C195.927 125.006 196.272 137.5 185.788 142.309L122.026 171.559C106.937 178.48 88.5626 178.48 73.4735 171.559L10.6418 142.736C-0.021738 137.844 0.565839 125.074 11.6484 120.859L34.8438 112.036M122.026 87.0883L187.088 57.2426C197.304 52.556 197.304 40.4736 187.088 35.7871L122.027 5.94138C106.937 -0.980453 88.5626 -0.980465 73.4735 5.94137L8.41221 35.7871C-1.80405 40.4736 -1.80408 52.556 8.41218 57.2425L73.4735 87.0883C88.5625 94.0101 106.937 94.0101 122.026 87.0883Z" stroke="white" stroke-width="2.5"/>
</svg>
