<svg width="1325" height="1467" viewBox="0 0 1325 1467" fill="none" xmlns="http://www.w3.org/2000/svg">
<path d="M513.905 320.126L514.839 320.839L514.838 320.84C554.011 351.144 561.64 407.404 531.747 447.073L531.036 448.005C501.205 486.565 446.224 494.561 406.674 466.288L405.743 465.613L404.8 464.913L308.096 392.041L307.162 391.327L307.163 391.327C268.602 361.497 260.606 306.515 288.878 266.965L289.553 266.034L290.252 265.094C320.145 225.425 376.329 217.25 416.257 246.552L417.2 247.254L513.905 320.126ZM487.822 413.974C475.975 429.696 453.625 432.837 437.903 420.989L341.194 348.114C325.471 336.266 322.33 313.916 334.177 298.194C346.025 282.471 368.376 279.33 384.098 291.178L480.807 364.053C496.529 375.901 499.67 398.251 487.822 413.974ZM488.621 414.575C500.801 398.412 497.572 375.435 481.409 363.254L384.7 290.379C368.536 278.199 345.559 281.428 333.378 297.592C321.199 313.755 324.428 336.732 340.592 348.913L437.301 421.788C453.464 433.968 476.441 430.739 488.621 414.575Z" stroke="#0755E9"/>
<path d="M741.202 543.017L742.013 543.867L742.012 543.868C775.962 579.927 774.696 636.688 738.966 671.193L738.118 672.001C702.622 705.42 647.067 704.717 612.427 670.605L611.613 669.793L610.791 668.953L526.677 581.851L525.866 581L525.867 581C492.448 545.505 493.151 489.949 527.262 455.309L528.074 454.495L528.912 453.675C564.642 419.171 621.414 419.887 656.266 455.074L657.088 455.915L741.202 543.017ZM700.76 631.629C686.598 645.304 664.033 644.91 650.357 630.749L566.239 543.642C552.564 529.481 552.957 506.915 567.118 493.239C581.28 479.563 603.847 479.957 617.522 494.119L701.64 581.226C715.316 595.387 714.921 617.954 700.76 631.629ZM701.454 632.348C716.013 618.289 716.419 595.09 702.36 580.531L618.242 493.424C604.182 478.865 580.982 478.461 566.423 492.52C551.865 506.579 551.461 529.778 565.52 544.337L649.638 631.444C663.697 646.002 686.896 646.407 701.454 632.348Z" stroke="#0755E9"/>
<path d="M278.905 128.126L279.839 128.839L279.838 128.84C319.011 159.144 326.64 215.404 296.747 255.073L296.036 256.005C266.205 294.565 211.224 302.561 171.674 274.288L170.743 273.613L169.8 272.913L73.0961 200.041L72.1617 199.327L72.1625 199.327C33.602 169.497 25.6057 114.515 53.8785 74.9652L54.553 74.0343L55.252 73.0937C85.1448 33.4247 141.329 25.2504 181.257 54.5523L182.2 55.2544L278.905 128.126ZM252.822 221.974C240.975 237.696 218.625 240.837 202.903 228.989L106.194 156.114C90.4711 144.266 87.3295 121.916 99.177 106.194C111.025 90.471 133.376 87.3299 149.098 99.1776L245.807 172.053C261.529 183.901 264.67 206.251 252.822 221.974ZM253.621 222.575C265.801 206.412 262.572 183.435 246.409 171.254L149.7 98.379C133.536 86.1989 110.559 89.4282 98.3784 105.592C86.1985 121.755 89.4282 144.732 105.592 156.913L202.301 229.788C218.464 241.968 241.441 238.739 253.621 222.575Z" stroke="#0755E9"/>
<path d="M940.439 775.505L941.205 776.396L941.204 776.397C973.22 814.183 968.986 870.8 931.498 903.388L930.609 904.15C893.413 935.666 837.97 932.056 805.163 896.178L804.393 895.325L803.617 894.443L724.176 803.058L723.411 802.165L723.412 802.166C691.896 764.97 695.506 709.527 731.383 676.72L732.237 675.95L733.116 675.175C770.603 642.588 827.26 646.274 860.223 683.236L860.999 684.119L940.439 775.505ZM895.415 861.878C880.557 874.794 858.043 873.219 845.127 858.362L765.683 766.972C752.768 752.114 754.342 729.6 769.199 716.684C784.057 703.768 806.573 705.343 819.488 720.2L898.932 811.59C911.848 826.448 910.273 848.963 895.415 861.878ZM896.071 862.633C911.346 849.355 912.965 826.209 899.687 810.934L820.243 719.544C806.965 704.27 783.818 702.651 768.543 715.929C753.269 729.207 751.651 752.354 764.929 767.628L844.373 859.018C857.651 874.292 880.797 875.911 896.071 862.633Z" stroke="#0755E9"/>
<path d="M1121.91 1023.8L1122.61 1024.74L1122.61 1024.74C1151.92 1064.67 1143.74 1120.86 1104.07 1150.75L1103.13 1151.45C1063.83 1180.29 1008.77 1172.82 978.549 1134.74L977.84 1133.84L977.126 1132.9L904.255 1036.2L903.553 1035.26L903.554 1035.26C874.709 995.954 882.178 940.897 920.257 910.673L921.162 909.964L922.093 909.253C961.762 879.36 1018.02 886.989 1048.33 926.161L1049.04 927.096L1121.91 1023.8ZM1070.97 1106.82C1055.25 1118.67 1032.9 1115.53 1021.05 1099.81L948.178 1003.1C936.33 987.376 939.471 965.025 955.193 953.178C970.915 941.33 993.266 944.471 1005.11 960.194L1077.99 1056.9C1089.84 1072.63 1086.7 1094.98 1070.97 1106.82ZM1071.57 1107.62C1087.74 1095.44 1090.97 1072.46 1078.79 1056.3L1005.91 959.592C993.733 943.428 970.755 940.199 954.591 952.379C938.428 964.559 935.199 987.536 947.379 1003.7L1020.25 1100.41C1032.43 1116.57 1055.41 1119.8 1071.57 1107.62Z" stroke="#0755E9"/>
<path d="M1274.06 1291.27L1274.69 1292.26L1274.69 1292.26C1301.13 1334.13 1289.06 1389.61 1247.4 1416.66L1246.42 1417.29C1205.2 1443.33 1150.8 1432.04 1123.3 1391.94L1122.66 1390.99L1122.01 1390.01L1056.06 1288.46L1055.43 1287.46L1055.43 1287.47C1029.4 1246.25 1040.69 1191.84 1080.78 1164.35L1081.73 1163.71L1082.71 1163.06C1124.37 1136.01 1179.96 1147.54 1207.46 1188.73L1208.11 1189.72L1274.06 1291.27ZM1217.45 1370.54C1200.94 1381.26 1178.86 1376.56 1168.14 1360.05L1102.19 1258.5C1091.47 1241.99 1096.16 1219.91 1112.67 1209.19C1129.18 1198.47 1151.26 1203.16 1161.98 1219.67L1227.93 1321.23C1238.65 1337.74 1233.96 1359.81 1217.45 1370.54ZM1217.99 1371.37C1234.97 1360.35 1239.79 1337.66 1228.77 1320.68L1162.82 1219.12C1151.79 1202.15 1129.1 1197.33 1112.12 1208.35C1095.15 1219.37 1090.33 1242.07 1101.35 1259.04L1167.3 1360.6C1178.32 1377.57 1201.02 1382.4 1217.99 1371.37Z" stroke="#0755E9"/>
<path d="M515.562 402.684L577.846 462.831C586.984 471.655 587.238 486.216 578.414 495.353L575.058 498.828C566.234 507.966 551.673 508.22 542.536 499.396L480.252 439.249C471.114 430.425 470.86 415.864 479.684 406.727L483.04 403.252C491.864 394.114 506.425 393.86 515.562 402.684Z" stroke="#0755E9"/>
<path d="M274.566 207.178L341.856 261.667C351.727 269.661 353.25 284.144 345.256 294.016L342.215 297.77C334.221 307.642 319.738 309.164 309.867 301.17L242.577 246.681C232.706 238.687 231.184 224.204 239.177 214.332L242.218 210.578C250.212 200.706 264.695 199.184 274.566 207.178Z" stroke="#0755E9"/>
<path d="M727.428 624.323L783.083 690.651C791.248 700.382 789.979 714.889 780.248 723.055L776.548 726.16C766.817 734.325 752.309 733.056 744.144 723.325L688.489 656.997C680.324 647.266 681.593 632.759 691.324 624.594L695.024 621.489C704.755 613.323 719.263 614.593 727.428 624.323Z" stroke="#0755E9"/>
<path d="M923.527 857.537L973.19 928.463C980.475 938.868 977.947 953.21 967.541 960.496L963.584 963.267C953.179 970.553 938.837 968.024 931.551 957.619L881.888 886.692C874.602 876.287 877.131 861.946 887.536 854.66L891.494 851.889C901.899 844.603 916.241 847.132 923.527 857.537Z" stroke="#0755E9"/>
<path d="M1087.7 1111.76L1136.11 1183.54C1143.22 1194.08 1140.44 1208.37 1129.91 1215.47L1125.9 1218.17C1115.37 1225.28 1101.08 1222.5 1093.97 1211.97L1045.56 1140.19C1038.45 1129.66 1041.23 1115.36 1051.76 1108.26L1055.77 1105.56C1066.3 1098.45 1080.59 1101.23 1087.7 1111.76Z" stroke="#0755E9"/>
</svg>
