<svg width="989" height="911" viewBox="0 0 989 911" fill="none" xmlns="http://www.w3.org/2000/svg">
<path d="M513.905 278.126L514.839 278.839L514.838 278.84C554.011 309.144 561.64 365.404 531.747 405.073L531.036 406.005C501.205 444.565 446.224 452.561 406.674 424.288L405.743 423.613L404.8 422.913L308.096 350.041L307.162 349.327L307.163 349.327C268.602 319.497 260.606 264.515 288.878 224.965L289.553 224.034L290.252 223.094C320.145 183.425 376.329 175.25 416.257 204.552L417.2 205.254L513.905 278.126ZM487.822 371.974C475.975 387.696 453.625 390.837 437.903 378.989L341.194 306.114C325.471 294.266 322.33 271.916 334.177 256.194C346.025 240.471 368.376 237.33 384.098 249.178L480.807 322.053C496.529 333.901 499.67 356.251 487.822 371.974ZM488.621 372.575C500.801 356.412 497.572 333.435 481.409 321.254L384.7 248.379C368.536 236.199 345.559 239.428 333.378 255.592C321.199 271.755 324.428 294.732 340.592 306.913L437.301 379.788C453.464 391.968 476.441 388.739 488.621 372.575Z" stroke="#0755E9"/>
<path d="M741.202 501.017L742.013 501.867L742.012 501.868C775.962 537.927 774.696 594.688 738.966 629.193L738.118 630.001C702.622 663.42 647.067 662.717 612.427 628.605L611.613 627.793L610.791 626.953L526.677 539.851L525.866 539L525.867 539C492.448 503.505 493.151 447.949 527.262 413.309L528.074 412.495L528.912 411.675C564.642 377.171 621.414 377.887 656.266 413.074L657.088 413.915L741.202 501.017ZM700.76 589.629C686.598 603.304 664.033 602.91 650.357 588.749L566.239 501.642C552.564 487.481 552.957 464.915 567.118 451.239C581.28 437.563 603.847 437.957 617.522 452.119L701.64 539.226C715.316 553.387 714.921 575.954 700.76 589.629ZM701.454 590.348C716.013 576.289 716.419 553.09 702.36 538.531L618.242 451.424C604.182 436.865 580.982 436.461 566.423 450.52C551.865 464.579 551.461 487.778 565.52 502.337L649.638 589.444C663.697 604.002 686.896 604.407 701.454 590.348Z" stroke="#0755E9"/>
<path d="M278.905 86.1263L279.839 86.8388L279.838 86.8396C319.011 117.144 326.64 173.404 296.747 213.073L296.036 214.005C266.205 252.565 211.224 260.561 171.674 232.288L170.743 231.613L169.8 230.913L73.0961 158.041L72.1617 157.327L72.1625 157.327C33.602 127.497 25.6057 72.5146 53.8785 32.9652L54.553 32.0343L55.252 31.0937C85.1448 -8.57531 141.329 -16.7496 181.257 12.5523L182.2 13.2544L278.905 86.1263ZM252.822 179.974C240.975 195.696 218.625 198.837 202.903 186.989L106.194 114.114C90.4711 102.266 87.3295 79.9161 99.177 64.1936C111.025 48.471 133.376 45.3299 149.098 57.1776L245.807 130.053C261.529 141.901 264.67 164.251 252.822 179.974ZM253.621 180.575C265.801 164.412 262.572 141.435 246.409 129.254L149.7 56.379C133.536 44.1989 110.559 47.4282 98.3784 63.5918C86.1985 79.7553 89.4282 102.732 105.592 114.913L202.301 187.788C218.464 199.968 241.441 196.739 253.621 180.575Z" stroke="#0755E9"/>
<path d="M928.131 740.307L928.897 741.198L928.896 741.199C960.912 778.985 956.677 835.603 919.19 868.19L918.301 868.953C881.105 900.468 825.662 896.858 792.855 860.98L792.085 860.127L791.308 859.245L711.868 767.86L711.103 766.967L711.103 766.968C679.588 729.772 683.198 674.329 719.075 641.522L719.929 640.752L720.808 639.977C758.295 607.39 814.951 611.076 847.915 648.039L848.691 648.922L928.131 740.307ZM883.107 826.681C868.249 839.596 845.735 838.022 832.819 823.164L753.375 731.774C740.46 716.917 742.034 694.402 756.891 681.486C771.749 668.57 794.264 670.145 807.18 685.003L886.624 776.393C899.539 791.25 897.965 813.765 883.107 826.681ZM883.763 827.435C899.037 814.158 900.657 791.011 887.379 775.736L807.935 684.347C794.657 669.072 771.51 667.453 756.235 680.731C740.961 694.009 739.343 717.156 752.621 732.43L832.065 823.82C845.343 839.095 868.488 840.713 883.763 827.435Z" stroke="#0755E9"/>
<path d="M515.562 360.684L577.846 420.831C586.984 429.655 587.238 444.216 578.414 453.353L575.058 456.828C566.234 465.966 551.673 466.22 542.536 457.396L480.252 397.249C471.114 388.425 470.86 373.864 479.684 364.727L483.04 361.252C491.864 352.114 506.425 351.86 515.562 360.684Z" stroke="#0755E9"/>
<path d="M274.566 165.178L341.856 219.667C351.727 227.661 353.25 242.144 345.256 252.016L342.215 255.77C334.221 265.642 319.738 267.164 309.867 259.17L242.577 204.681C232.706 196.687 231.184 182.204 239.177 172.332L242.218 168.578C250.212 158.706 264.695 157.184 274.566 165.178Z" stroke="#0755E9"/>
<path d="M716.568 577.528L775.619 640.852C784.282 650.142 783.774 664.696 774.484 673.359L770.95 676.654C761.66 685.317 747.106 684.809 738.443 675.519L679.393 612.195C670.729 602.905 671.238 588.351 680.528 579.687L684.061 576.393C693.351 567.73 707.905 568.238 716.568 577.528Z" stroke="#0755E9"/>
</svg>
