<svg width="215" height="207" viewBox="0 0 215 207" fill="none" xmlns="http://www.w3.org/2000/svg">
<ellipse cx="32.6324" cy="30.75" rx="32.6324" ry="30.75" transform="matrix(-1 0 0 1 138.062 72.5)" stroke="white" stroke-width="3"/>
<path d="M105.43 0.75V0V0V0.75ZM154.379 30.8594L154.021 31.5182V31.5182L154.379 30.8594ZM154.379 175.637L154.021 174.978V174.978L154.379 175.637ZM105.43 205.75V206.5V206.5V205.75ZM56.4819 175.637L56.8404 174.978H56.8403L56.4819 175.637ZM18.4106 103.25H19.1606V103.25H18.4106ZM56.4819 30.8594L56.8404 31.5182V31.5182L56.4819 30.8594ZM72.7437 6.02046L71.9952 5.97337L72.7437 6.02046ZM73.3216 5.28948L73.531 6.00966L73.3216 5.28948ZM26.5246 32.6979L27.053 33.2301L26.5246 32.6979ZM27.3948 32.5254L27.6733 31.8291L27.3948 32.5254ZM27.3919 173.971L27.1133 173.274L27.3919 173.971ZM26.5216 173.798L25.9932 174.33L26.5216 173.798ZM73.3226 201.21L73.1133 201.93L73.3226 201.21ZM72.7447 200.479L73.4932 200.431L72.7447 200.479ZM138.117 200.478L138.865 200.525L138.117 200.478ZM137.539 201.209L137.748 201.929L137.539 201.209ZM184.338 173.798L183.809 173.266L184.338 173.798ZM183.468 173.971L183.189 174.667L183.468 173.971ZM1.20014 76.1437L0.861379 76.8129L1.20014 76.1437ZM0.78422 75.1912L1.50232 75.4076L0.78422 75.1912ZM183.466 32.5264L183.744 33.2228L183.466 32.5264ZM184.336 32.6989L184.864 32.1667L184.336 32.6989ZM0.784208 131.308L0.0661091 131.524L0.784208 131.308ZM1.20012 130.355L1.53889 131.024L1.20012 130.355ZM137.539 5.29046L137.329 6.01064L137.539 5.29046ZM138.117 6.02141L137.368 6.06852L138.117 6.02141ZM105.43 0.75V1.5C116.536 1.50002 127.248 3.07974 137.329 6.01064L137.539 5.29046L137.748 4.57028C127.532 1.60011 116.678 1.52588e-05 105.43 0V0.75ZM138.117 6.02141L137.368 6.06852C138.012 16.3032 143.928 26.0269 154.021 31.5182L154.379 30.8594L154.738 30.2006C145.092 24.9527 139.477 15.6879 138.865 5.9743L138.117 6.02141ZM154.379 30.8594L154.021 31.5182C163.455 36.651 174.439 36.9437 183.744 33.2228L183.466 32.5264L183.187 31.83C174.276 35.3933 163.761 35.1096 154.738 30.2006L154.379 30.8594ZM184.336 32.6989L183.807 33.2312C202.187 51.4779 213.455 76.1269 213.455 103.25H214.205H214.955C214.955 75.6985 203.506 50.6741 184.864 32.1667L184.336 32.6989ZM214.205 103.25H213.455C213.455 130.372 202.187 155.019 183.809 173.266L184.338 173.798L184.866 174.33C203.507 155.823 214.955 130.8 214.955 103.25H214.205ZM183.468 173.971L183.746 173.274C174.44 169.553 163.456 169.845 154.021 174.978L154.379 175.637L154.738 176.296C163.762 171.386 174.277 171.103 183.189 174.667L183.468 173.971ZM154.379 175.637L154.021 174.978C143.927 180.47 138.011 190.195 137.368 200.431L138.117 200.478L138.865 200.525C139.476 190.81 145.091 181.544 154.738 176.296L154.379 175.637ZM137.539 201.209L137.329 200.488C127.248 203.419 116.536 205 105.43 205V205.75V206.5C116.679 206.5 127.532 204.899 137.748 201.929L137.539 201.209ZM105.43 205.75V205C94.3251 205 83.6132 203.42 73.532 200.489L73.3226 201.21L73.1133 201.93C83.3295 204.9 94.1824 206.5 105.43 206.5V205.75ZM72.7447 200.479L73.4932 200.431C72.8503 190.195 66.935 180.47 56.8404 174.978L56.4819 175.637L56.1235 176.296C65.7705 181.544 71.3859 190.811 71.9962 200.526L72.7447 200.479ZM56.4819 175.637L56.8403 174.978C47.4046 169.845 36.4194 169.552 27.1133 173.274L27.3919 173.971L27.6704 174.667C36.5823 171.102 47.099 171.386 56.1235 176.296L56.4819 175.637ZM26.5216 173.798L27.05 173.266C15.2127 161.513 6.32807 147.104 1.50231 131.091L0.784208 131.308L0.0661091 131.524C4.96726 147.787 13.9875 162.41 25.9932 174.33L26.5216 173.798ZM1.20012 130.355L1.53889 131.024C12.01 125.723 19.1606 115.286 19.1606 103.25H18.4106H17.6606C17.6606 114.666 10.8793 124.614 0.861352 129.686L1.20012 130.355ZM18.4106 103.25H19.1606C19.1606 91.2135 12.0102 80.7759 1.53891 75.4746L1.20014 76.1437L0.861379 76.8129C10.8795 81.8847 17.6606 91.8342 17.6606 103.25H18.4106ZM0.78422 75.1912L1.50232 75.4076C6.32861 59.3935 15.2141 44.9834 27.053 33.2301L26.5246 32.6979L25.9962 32.1656C13.9889 44.0861 4.96781 58.7105 0.0661229 74.9748L0.78422 75.1912ZM27.3948 32.5254L27.1163 33.2218C36.4218 36.9432 47.4054 36.6512 56.8404 31.5182L56.4819 30.8594L56.1235 30.2006C47.0999 35.1098 36.5847 35.3929 27.6733 31.8291L27.3948 32.5254ZM56.4819 30.8594L56.8404 31.5182C66.934 26.0267 72.8484 16.3025 73.4922 6.06754L72.7437 6.02046L71.9952 5.97337C71.3841 15.6873 65.7695 24.9526 56.1235 30.2006L56.4819 30.8594ZM73.3216 5.28948L73.531 6.00966C83.6123 3.0789 94.3248 1.5 105.43 1.5V0.75V0C94.1822 0 83.3287 1.59924 73.1122 4.5693L73.3216 5.28948ZM72.7437 6.02046L73.4922 6.06754C73.4945 6.03105 73.5172 6.01366 73.531 6.00966L73.3216 5.28948L73.1122 4.5693C72.47 4.75601 72.0358 5.32804 71.9952 5.97337L72.7437 6.02046ZM26.5246 32.6979L27.053 33.2301C27.0632 33.22 27.0868 33.21 27.1163 33.2218L27.3948 32.5254L27.6733 31.8291C27.1047 31.6017 26.4431 31.722 25.9962 32.1656L26.5246 32.6979ZM27.3919 173.971L27.1133 173.274C27.0838 173.286 27.0602 173.276 27.05 173.266L26.5216 173.798L25.9932 174.33C26.4401 174.774 27.1018 174.894 27.6704 174.667L27.3919 173.971ZM73.3226 201.21L73.532 200.489C73.5182 200.485 73.4955 200.468 73.4932 200.431L72.7447 200.479L71.9962 200.526C72.0367 201.171 72.471 201.743 73.1133 201.93L73.3226 201.21ZM138.117 200.478L137.368 200.431C137.366 200.467 137.343 200.484 137.329 200.488L137.539 201.209L137.748 201.929C138.39 201.742 138.825 201.17 138.865 200.525L138.117 200.478ZM184.338 173.798L183.809 173.266C183.799 173.276 183.775 173.286 183.746 173.274L183.468 173.971L183.189 174.667C183.758 174.894 184.419 174.774 184.866 174.33L184.338 173.798ZM1.20014 76.1437L1.53891 75.4746C1.52241 75.4662 1.51119 75.4534 1.50514 75.4397C1.49944 75.4267 1.49963 75.4165 1.50232 75.4076L0.78422 75.1912L0.0661229 74.9748C-0.155547 75.7103 0.198897 76.4775 0.861379 76.8129L1.20014 76.1437ZM183.466 32.5264L183.744 33.2228C183.773 33.211 183.797 33.2209 183.807 33.2312L184.336 32.6989L184.864 32.1667C184.417 31.7231 183.756 31.6026 183.187 31.83L183.466 32.5264ZM0.784208 131.308L1.50231 131.091C1.49962 131.082 1.49943 131.072 1.50513 131.059C1.51118 131.046 1.5224 131.033 1.53889 131.024L1.20012 130.355L0.861352 129.686C0.198886 130.022 -0.155551 130.789 0.0661091 131.524L0.784208 131.308ZM137.539 5.29046L137.329 6.01064C137.343 6.01464 137.366 6.03203 137.368 6.06852L138.117 6.02141L138.865 5.9743C138.825 5.32899 138.39 4.75699 137.748 4.57028L137.539 5.29046Z" fill="white" stroke="white" stroke-width="1.5" stroke-linejoin="round"/>
</svg>
