<svg width="280" height="256" viewBox="0 0 280 256" fill="none" xmlns="http://www.w3.org/2000/svg">
<path d="M242.41 91.6317L243.344 92.3442L243.344 92.345C282.516 122.649 290.146 178.91 260.253 218.579L259.541 219.51C229.711 258.07 174.729 266.066 135.18 237.793L134.249 237.119L133.306 236.418L36.6017 163.546L35.6674 162.832L35.6681 162.833C-2.89236 133.002 -10.8887 78.02 17.3841 38.4706L18.0586 37.5397L18.7577 36.5991C48.6505 -3.06994 104.835 -11.2442 144.763 18.0576L145.706 18.7598L242.41 91.6317ZM216.328 185.479C204.48 201.201 182.131 204.342 166.408 192.495L69.6992 119.619C53.9767 107.772 50.8351 85.4214 62.6826 69.6989C74.5304 53.9764 96.8812 50.8352 112.604 62.683L209.313 135.558C225.035 147.406 228.176 169.757 216.328 185.479ZM217.127 186.081C229.307 169.917 226.078 146.94 209.915 134.76L113.206 61.8843C97.042 49.7042 74.0642 52.9335 61.884 69.0971C49.7041 85.2607 52.9339 108.238 69.0973 120.418L165.806 193.293C181.97 205.473 204.946 202.244 217.127 186.081Z" stroke="#0755E9"/>
</svg>
