<svg width="93" height="56" viewBox="0 0 93 56" fill="none" xmlns="http://www.w3.org/2000/svg">
<g transform="rotate(-17 0 25.599) translate(-1.88257e-06 16.065288) scale(0.0588279 0.0588279)" fill-rule="evenodd">
<path d="M691.5 681.0C670.4 679.0 654.8 670.5 648.4 657.4C646.0 652.6 645.8 651.1 646.3 644.7C646.5 640.8 647.1 636.7 647.5 635.8C648.1 634.3 647.4 634.4 642.1 636.5C638.8 637.9 633.0 639.5 629.3 640.1C618.9 641.8 543.4 642.5 535.7 641.0C517.0 637.4 504.0 624.3 501.1 606.0C498.5 590.1 500.3 573.8 513.5 494.8C516.5 476.8 519.0 461.2 519.0 460.3C519.0 459.3 517.1 457.3 514.6 455.7C504.7 449.4 497.9 439.1 495.8 427.0C494.4 419.0 495.9 404.1 500.5 379.5C501.8 372.4 502.7 366.4 502.5 366.2C502.3 366.0 501.3 366.3 500.3 366.8C499.3 367.4 494.6 368.8 490.0 370.0C485.3 371.2 481.2 372.5 480.8 372.8C480.4 373.2 478.5 383.2 476.5 395.0C470.3 431.7 468.4 437.9 460.0 446.0C449.9 455.8 434.6 460.5 413.0 460.3C396.2 460.2 385.7 458.7 375.9 454.8L368.3 451.8L363.4 454.3C347.5 462.3 329.9 465.5 306.5 464.7C294.0 464.3 289.0 463.7 283.5 462.0C254.0 452.7 236.2 435.8 228.4 409.4C226.9 404.2 225.4 400.0 225.0 400.0C224.6 400.0 223.7 402.8 223.1 406.2C220.8 418.1 217.0 431.3 214.4 436.0C208.6 446.7 196.9 455.1 182.9 458.5C173.2 461.0 148.4 461.6 139.0 459.6C128.6 457.4 118.1 452.0 113.0 446.3C104.5 436.6 100.1 421.8 101.5 407.8C103.4 388.1 124.5 270.3 129.2 253.0C134.7 232.5 146.5 221.6 167.5 217.5C177.0 215.7 180.8 215.6 273.0 217.3C302.9 217.8 307.6 218.5 317.0 223.6C324.6 227.6 330.2 236.0 332.5 246.7C333.4 251.0 334.3 255.1 334.5 255.8C334.8 256.7 338.4 257.0 347.9 257.0C364.2 257.0 378.1 259.8 388.8 265.4C391.7 266.9 392.3 266.8 402.2 263.6C412.9 260.0 426.1 258.0 438.9 258.0C445.4 258.0 469.8 260.4 474.7 261.5C476.5 261.9 477.1 261.5 477.5 259.3C480.6 244.8 482.2 241.6 491.1 232.7C498.6 225.2 505.0 221.7 515.6 219.5C522.8 218.0 567.7 216.4 595.0 216.6C603.5 216.7 620.6 216.9 633.0 217.0C671.9 217.4 684.7 221.1 692.5 234.5C694.9 238.6 697.0 247.6 697.0 253.7L697.0 257.0L703.0 257.0C710.3 257.0 718.3 258.6 723.2 261.1C725.3 262.2 727.3 263.0 727.8 263.0C728.3 263.0 729.2 260.0 729.9 256.4C731.6 247.0 736.7 237.5 743.4 231.2C750.0 224.9 754.6 222.7 766.0 220.4C778.0 218.0 802.6 218.8 812.0 222.0C828.7 227.6 837.3 237.3 838.7 252.2L839.2 258.5L851.9 258.2C871.0 257.6 890.3 260.8 901.6 266.3L905.9 268.3L911.7 265.8C914.9 264.3 920.2 262.6 923.5 262.0C931.9 260.3 951.1 260.2 959.7 261.9C966.3 263.2 968.0 263.1 978.2 261.4C986.1 260.1 994.1 259.5 1005.0 259.6C1018.5 259.6 1021.9 260.0 1031.3 262.4C1037.2 263.9 1042.4 264.9 1042.9 264.5C1043.4 264.2 1044.2 262.5 1044.5 260.8C1047.4 247.7 1057.5 237.5 1071.4 233.5C1080.4 230.9 1098.9 229.7 1111.3 231.0C1127.3 232.6 1133.6 234.6 1141.8 240.7C1146.0 243.9 1150.0 251.9 1150.7 258.7C1151.2 263.4 1151.6 264.3 1153.9 265.1C1163.2 268.5 1170.9 275.0 1174.6 282.7C1178.2 290.0 1178.2 298.9 1174.6 316.0C1173.1 322.9 1171.3 331.6 1170.5 335.3L1169.2 342.2L1172.3 343.3C1187.8 348.7 1200.7 359.1 1207.2 371.5C1213.1 382.8 1214.3 388.6 1213.8 401.6L1213.3 412.9L1216.1 414.1C1220.4 415.8 1225.5 422.1 1227.5 427.9C1229.1 432.7 1229.4 433.1 1231.7 432.5C1247.5 428.6 1271.5 430.7 1285.1 437.3L1291.9 440.5L1296.7 435.7C1304.3 428.1 1311.6 425.1 1326.2 423.8C1360.4 420.8 1386.6 430.9 1393.3 449.7C1395.0 454.5 1395.4 454.8 1402.5 458.0C1408.5 460.6 1411.1 462.5 1415.6 467.4L1421.1 473.6L1439.7 474.8C1450.0 475.5 1458.8 476.4 1459.3 476.9C1459.8 477.4 1459.9 478.7 1459.6 479.8C1458.7 482.6 1418.4 522.1 1365.0 572.6C1349.4 587.4 1326.5 609.0 1314.3 620.6C1302.1 632.3 1289.7 643.2 1286.8 644.9C1283.9 646.6 1278.7 649.7 1275.2 651.9C1266.3 657.5 1257.3 659.5 1242.5 659.3C1212.6 659.0 1181.5 650.6 1161.9 637.7C1159.5 636.1 1159.0 636.1 1155.7 637.5C1144.1 642.3 1117.8 643.6 1102.0 640.1C1092.4 637.9 1082.3 634.4 1079.9 632.4C1078.6 631.3 1078.1 631.3 1076.3 632.5C1070.8 636.4 1063.1 639.3 1055.2 640.6C1044.0 642.4 1029.1 641.1 1021.2 637.5C1015.9 635.1 1015.8 635.1 1012.2 636.9C1003.1 641.5 981.1 642.5 969.1 638.8C963.4 637.1 962.4 637.0 959.1 638.3C952.5 641.0 939.1 642.3 923.5 641.8C907.3 641.3 900.7 639.6 891.1 633.6C888.9 632.1 887.0 631.4 887.0 631.8C887.0 632.8 875.7 638.5 869.5 640.7C859.2 644.3 837.3 644.2 824.4 640.4C809.4 636.1 798.9 623.2 797.1 607.0C796.3 599.4 797.6 583.4 800.5 565.2C801.4 559.5 801.9 553.7 801.6 552.4C801.2 551.1 801.5 549.0 802.1 547.7C802.8 546.4 802.8 545.9 802.2 546.5C801.6 547.0 797.3 556.5 792.7 567.5C781.5 593.9 761.1 639.0 754.7 651.4C748.0 664.3 741.9 670.9 732.6 675.5C721.2 681.2 709.9 682.7 691.5 681.0Z" fill="#FFFFFF"/>
<path d="M1254.0 647.0C1254.0 639.9 1254.3 637.8 1255.5 637.4C1256.3 637.0 1257.0 636.2 1257.0 635.5C1257.0 633.8 1260.1 631.4 1263.4 630.6C1266.5 629.8 1273.0 623.8 1273.0 621.7C1273.0 620.2 1275.3 617.7 1279.9 614.0C1281.6 612.6 1283.0 611.1 1283.0 610.5C1283.0 609.2 1286.6 606.0 1288.0 606.0C1288.6 606.0 1289.0 605.5 1289.0 605.0C1289.0 604.5 1289.9 603.1 1290.9 602.1C1292.0 601.0 1293.6 599.0 1294.5 597.6C1296.1 595.3 1296.9 595.0 1302.5 595.0C1308.7 595.0 1308.9 595.1 1309.2 597.8C1309.6 600.2 1309.7 600.3 1310.5 598.5C1312.4 593.8 1320.1 583.3 1322.9 581.5C1324.6 580.4 1326.0 579.0 1326.0 578.5C1326.1 578.0 1328.8 575.3 1332.1 572.5C1335.4 569.8 1338.9 566.3 1339.8 564.8C1340.7 563.3 1341.9 562.0 1342.5 562.0C1343.0 562.0 1344.5 560.5 1345.8 558.7C1347.0 556.8 1349.2 554.7 1350.5 554.0C1351.9 553.3 1353.0 552.3 1353.0 551.8C1353.0 551.4 1353.4 551.0 1354.0 551.0C1354.5 551.0 1358.3 547.7 1362.5 543.6C1366.6 539.5 1370.8 535.9 1371.9 535.5C1374.0 534.9 1387.0 522.3 1387.0 520.9C1387.0 520.5 1389.1 518.6 1391.8 516.7C1398.8 511.5 1401.1 509.7 1403.5 507.2C1404.7 506.0 1406.3 505.0 1406.9 505.0C1408.4 505.0 1411.0 502.5 1411.0 501.1C1411.0 500.5 1411.6 500.0 1412.2 500.0C1412.9 500.0 1414.8 498.9 1416.4 497.5C1418.0 496.1 1419.9 495.0 1420.7 495.0C1421.5 495.0 1423.0 494.1 1424.2 493.0C1425.9 491.4 1427.8 491.0 1432.7 491.0L1439.0 491.0L1439.0 496.3L1439.0 501.7L1430.8 509.5C1426.2 513.9 1412.4 527.1 1400.0 539.0C1387.6 550.9 1366.0 571.4 1352.0 584.5C1338.0 597.7 1323.4 611.5 1319.5 615.2C1313.1 621.4 1312.1 622.0 1308.2 622.0C1304.4 622.0 1304.0 621.8 1304.0 619.4C1304.0 617.5 1302.4 619.3 1296.8 627.6C1282.3 649.0 1273.4 656.0 1260.6 656.0L1254.0 656.0L1254.0 647.0Z" fill="#D6E2F0"/>
<path d="M684.0 638.6C684.0 638.1 687.0 632.4 700.9 606.4L710.0 589.2L706.0 575.0C699.6 552.7 690.6 515.8 683.6 483.8C683.2 482.1 684.6 482.0 701.6 482.0C719.8 482.0 720.0 482.0 720.5 484.2C720.7 485.5 722.4 495.0 724.1 505.4C727.1 524.1 732.6 551.9 733.3 552.6C733.6 553.0 747.9 519.8 759.9 490.8L763.5 482.0L781.2 482.0C791.0 482.0 799.0 482.2 799.0 482.5C799.0 482.8 790.5 500.4 780.2 521.8C761.8 559.6 747.9 588.6 732.2 622.0L724.4 638.5L704.2 638.8C693.1 638.9 684.0 638.8 684.0 638.6ZM539.0 598.5C539.0 597.1 541.3 580.8 544.0 562.2C546.8 543.7 550.7 517.7 552.6 504.5C554.6 491.3 557.4 472.6 558.9 463.0L561.6 445.5L602.6 445.6C641.1 445.7 644.0 445.8 651.4 447.9C664.2 451.3 672.5 457.4 677.2 466.9C680.4 473.4 680.4 488.8 677.1 497.2C673.1 507.4 663.2 516.0 650.5 520.0L646.6 521.3L651.9 522.6C666.5 526.4 675.7 537.2 676.8 552.0C677.9 568.8 669.0 584.1 653.1 592.4C639.2 599.7 627.6 601.0 577.8 601.0L539.0 601.0L539.0 598.5ZM921.5 599.6C900.6 594.4 891.6 575.5 900.9 556.5C909.6 538.8 930.4 530.1 968.2 528.3L981.9 527.7L982.6 523.4C984.3 512.0 978.3 505.9 965.2 505.7C954.2 505.6 946.6 509.0 943.6 515.5L941.9 519.0L925.5 519.0C906.4 519.0 906.9 519.5 912.2 508.9C918.1 497.0 929.7 488.0 945.5 483.0C955.3 479.8 981.3 479.0 991.0 481.5C1002.5 484.4 1010.8 491.0 1015.2 500.5C1019.0 508.7 1018.3 518.6 1011.2 560.8C1007.8 580.8 1004.8 597.4 1004.6 597.8C1004.4 598.2 996.6 598.4 987.3 598.2L970.3 597.9L971.1 593.2C972.3 586.1 972.2 586.0 968.8 589.2C958.6 598.7 937.0 603.4 921.5 599.6ZM1110.0 598.9C1102.0 597.6 1090.4 591.6 1084.5 585.6C1075.2 576.3 1071.5 564.6 1072.3 547.5C1073.2 527.8 1080.4 511.3 1093.9 498.0C1106.8 485.3 1120.2 480.0 1139.6 480.0C1151.9 480.0 1158.6 481.3 1166.0 485.0C1181.8 492.9 1188.7 510.1 1186.1 534.8C1185.5 540.7 1185.0 546.1 1185.0 546.7C1185.0 547.7 1176.0 548.0 1145.2 548.2L1105.5 548.5L1105.8 553.0C1106.2 559.4 1107.8 563.7 1111.2 567.5C1119.6 577.2 1139.2 575.8 1148.4 565.0L1151.0 561.9L1165.5 561.7C1173.5 561.6 1180.0 561.9 1180.0 562.4C1180.0 562.8 1178.6 566.0 1176.8 569.4C1172.2 578.1 1160.3 589.9 1152.0 593.8C1140.3 599.3 1124.5 601.2 1110.0 598.9ZM833.0 598.2C833.0 597.8 836.8 570.8 841.5 538.2C846.2 505.7 850.0 478.6 850.0 478.0C850.0 477.4 842.3 477.0 827.9 477.0L805.8 477.0L806.5 473.2C806.9 471.2 808.2 464.1 809.4 457.5L811.5 445.5L875.8 445.2C929.6 445.0 940.0 445.2 940.0 446.4C940.0 447.7 935.7 469.2 934.5 474.3L933.8 477.0L910.4 477.0C891.9 477.0 887.0 477.3 887.0 478.3C887.0 479.0 884.5 496.4 881.5 517.0C878.4 537.6 874.5 564.5 872.8 576.8L869.6 599.0L851.3 599.0C841.2 599.0 833.0 598.6 833.0 598.2ZM1021.0 597.0C1021.0 596.5 1024.2 578.0 1028.0 555.8C1031.9 533.6 1037.5 500.6 1040.5 482.5C1043.6 464.4 1046.3 448.5 1046.6 447.2C1047.0 445.0 1047.2 445.0 1064.5 445.0L1082.0 445.0L1082.0 447.4C1082.0 450.4 1079.6 465.0 1072.5 505.0C1065.6 543.6 1058.0 591.0 1058.0 595.0L1058.0 598.0L1039.5 598.0C1028.5 598.0 1021.0 597.6 1021.0 597.0ZM1185.5 594.8C1186.8 586.7 1200.0 500.5 1201.2 492.0L1202.5 482.5L1217.9 482.2L1233.2 481.9L1232.8 488.4L1232.4 494.8L1236.9 490.9C1239.3 488.7 1244.3 485.5 1247.9 483.7C1254.2 480.6 1255.0 480.5 1266.0 480.5C1279.1 480.6 1285.2 482.5 1290.8 488.3C1299.2 496.9 1300.3 506.8 1296.1 534.5C1294.4 545.5 1291.6 564.3 1289.8 576.2L1286.6 598.0L1270.3 598.0L1254.0 598.0L1254.5 595.8C1256.8 585.4 1266.0 521.7 1265.7 518.7C1264.6 510.5 1258.8 506.5 1248.9 507.2C1238.0 508.0 1231.5 515.2 1228.5 529.9C1227.4 535.2 1219.0 594.8 1219.0 597.3C1219.0 597.7 1211.3 598.0 1202.0 598.0L1184.9 598.0L1185.5 594.8ZM1311.6 586.8C1308.5 579.8 1308.6 573.9 1311.9 557.0C1315.5 538.4 1320.0 512.1 1320.0 509.1C1320.0 507.1 1319.5 507.0 1311.9 507.0L1303.8 507.0L1304.4 504.0C1304.7 502.3 1305.3 496.7 1305.6 491.5L1306.3 482.0L1314.1 482.0C1320.9 482.0 1322.0 481.8 1322.0 480.2C1322.1 476.1 1324.8 454.9 1325.3 454.4C1325.6 454.1 1333.3 454.4 1342.4 455.1C1355.3 456.1 1359.0 456.6 1358.6 457.7C1358.0 459.1 1354.0 479.6 1354.0 481.1C1354.0 481.6 1359.9 482.0 1368.1 482.0C1380.6 482.0 1382.1 482.2 1381.6 483.6C1381.3 484.5 1380.7 487.6 1380.4 490.5C1380.0 493.4 1379.5 496.2 1379.1 496.8C1378.8 497.4 1372.9 499.5 1366.0 501.5C1359.1 503.6 1352.9 505.6 1352.1 506.0C1351.4 506.4 1349.7 510.8 1348.4 515.8C1345.4 528.0 1340.4 540.2 1330.3 560.5C1322.8 575.4 1314.3 591.0 1313.7 591.0C1313.6 591.0 1312.6 589.1 1311.6 586.8ZM961.3 573.9C969.2 571.3 975.8 563.1 977.6 553.5L978.3 549.7L964.9 550.3C946.0 551.2 938.5 553.4 935.0 559.3C931.1 565.6 933.6 572.9 940.3 575.0C944.2 576.2 956.1 575.5 961.3 573.9ZM630.5 567.5C636.4 563.8 639.0 559.2 639.0 552.5C639.0 545.9 636.5 541.9 630.3 538.9C625.7 536.6 624.6 536.5 605.5 536.5L585.6 536.5L583.0 553.8L580.4 571.2L603.0 570.8L625.7 570.5L630.5 567.5ZM1155.0 522.7C1155.0 512.5 1147.2 505.0 1136.7 505.0C1124.8 505.0 1115.7 511.6 1110.2 524.2L1109.0 527.0L1132.0 527.0L1155.0 527.0L1155.0 522.7ZM629.1 505.9C637.8 503.0 642.6 496.2 641.7 488.2C641.1 483.0 638.2 479.6 632.6 477.6C626.7 475.5 596.2 474.3 595.5 476.2C595.3 476.9 594.0 484.1 592.7 492.2L590.4 507.0L608.0 507.0C618.6 507.0 627.1 506.5 629.1 505.9ZM632.0 421.0C615.4 417.5 604.1 403.6 605.2 388.2C606.4 371.3 621.0 357.7 645.0 351.1C655.1 348.4 673.9 346.0 685.9 346.0C697.1 346.0 697.0 346.1 697.0 337.6C697.0 328.2 691.5 324.0 679.3 324.0C669.4 324.0 665.2 325.5 660.2 330.6C657.9 333.0 656.0 335.7 656.0 336.5C656.0 337.8 653.2 338.0 638.0 338.0L620.0 338.0L620.6 335.2C621.0 333.7 622.8 329.5 624.8 325.7C631.1 313.5 644.4 303.5 659.8 299.5C675.5 295.5 701.9 295.7 713.4 300.1C720.3 302.6 728.3 309.7 731.8 316.4C734.2 321.0 734.5 322.5 734.5 332.0C734.5 341.0 733.4 347.9 727.1 380.0C723.1 400.6 719.6 418.1 719.4 418.8C719.1 419.7 714.6 420.0 701.0 420.0C684.2 420.0 682.9 419.9 683.4 418.2C684.4 415.3 685.8 407.0 685.3 407.0C685.1 407.0 683.7 408.1 682.2 409.5C678.6 412.9 668.8 418.0 662.6 419.7C656.2 421.4 637.9 422.2 632.0 421.0ZM301.3 419.5C288.1 416.6 276.4 408.9 270.0 398.9C254.7 375.1 260.0 340.7 282.6 317.5C296.2 303.4 315.6 296.0 338.7 296.0C366.2 296.0 384.7 305.8 392.6 324.6C395.3 331.0 395.5 332.4 395.5 345.0C395.5 360.1 393.6 368.9 387.9 380.3C377.6 400.9 362.0 413.6 340.6 419.0C331.2 421.4 311.1 421.6 301.3 419.5ZM827.4 419.5C810.3 415.8 796.7 402.3 792.5 384.8C789.8 373.8 790.8 359.1 795.3 346.1C799.5 333.9 803.7 326.7 811.5 318.2C825.3 303.3 841.7 296.6 864.1 296.7C880.9 296.8 891.0 300.2 900.1 308.7C912.0 319.8 915.2 335.3 910.9 360.7L909.7 367.8L904.6 368.4C901.8 368.8 882.9 368.8 862.6 368.5L825.7 368.0L826.2 373.3C826.8 380.4 829.7 385.8 834.9 389.5C838.9 392.3 839.8 392.5 848.3 392.5C858.6 392.5 861.9 391.3 868.1 385.3L871.8 381.8L888.4 382.5C907.3 383.4 906.2 382.6 900.7 391.8C898.9 394.8 894.1 400.5 889.9 404.5C881.7 412.3 873.9 416.7 863.4 419.4C855.8 421.4 836.1 421.4 827.4 419.5ZM1076.0 419.4C1066.6 416.9 1059.8 411.0 1057.1 403.1C1055.0 396.6 1056.0 387.0 1061.9 357.7C1065.1 341.9 1067.4 328.8 1067.1 328.6C1066.8 328.4 1062.9 328.2 1058.5 328.1C1054.1 327.9 1050.4 327.7 1050.3 327.6C1050.1 327.4 1050.7 321.0 1051.7 313.2L1053.3 299.0L1064.7 299.0C1072.2 299.0 1076.0 298.6 1076.0 297.9C1076.0 296.3 1078.9 272.1 1079.5 268.2L1080.1 265.0L1098.5 265.0C1108.7 265.0 1117.0 265.3 1117.0 265.8C1117.0 266.2 1115.6 273.5 1114.0 282.0C1112.4 290.5 1111.0 297.8 1111.0 298.2C1111.0 298.7 1118.2 299.0 1127.0 299.0C1135.8 299.0 1143.0 299.2 1143.0 299.3C1143.0 299.5 1141.7 306.1 1140.0 313.8C1138.3 321.6 1137.0 328.1 1137.0 328.2C1137.0 328.4 1129.5 328.5 1120.4 328.5L1103.7 328.5L1099.3 352.0C1093.3 384.3 1093.4 384.0 1095.8 387.0C1097.8 389.4 1098.3 389.5 1109.5 389.5L1121.1 389.4L1120.5 392.0C1120.1 393.4 1119.0 399.9 1117.9 406.4C1116.8 413.0 1115.7 418.6 1115.4 418.9C1113.2 421.1 1083.8 421.5 1076.0 419.4ZM1144.7 419.5C1136.7 416.7 1132.1 409.5 1132.0 399.7C1132.0 386.2 1141.5 376.4 1155.6 375.2C1166.4 374.4 1175.2 378.5 1179.1 386.3C1183.2 394.1 1180.4 407.5 1173.3 414.2C1166.7 420.5 1154.0 422.9 1144.7 419.5ZM160.9 419.2L141.4 419.0L149.5 373.2C154.0 348.1 160.5 311.4 164.1 291.8L170.5 256.0L229.8 256.0C285.8 256.0 289.1 256.1 288.6 257.8C288.0 259.6 282.0 287.7 282.0 288.5C282.0 288.8 264.4 289.0 243.0 289.0C221.6 289.0 204.0 289.3 204.0 289.6C204.0 290.5 199.1 320.2 198.5 322.8L198.0 325.0L228.5 325.0C245.3 325.0 259.0 325.3 259.0 325.6C259.0 325.9 257.6 333.6 255.9 342.6L252.7 359.0L221.9 359.0C193.1 359.0 191.0 359.1 191.0 360.8C191.0 363.4 181.9 416.3 181.2 418.0C180.6 419.3 177.5 419.5 160.9 419.2ZM395.4 417.2C395.7 415.7 397.6 405.9 399.5 395.5C402.7 377.9 409.6 340.4 415.1 311.2L417.4 299.0L435.2 299.0L453.0 299.0L452.6 301.2C452.3 302.5 451.6 306.2 451.0 309.5C450.4 312.8 449.6 316.3 449.3 317.4C449.0 318.4 451.4 316.7 454.6 313.5C466.3 301.9 475.2 298.0 489.5 298.0C494.5 298.0 498.9 298.2 499.2 298.5C499.7 299.1 493.8 331.6 493.0 332.4C492.7 332.7 489.7 332.3 486.5 331.5C474.2 328.6 464.4 330.3 456.1 336.9C448.7 342.8 447.1 347.9 439.5 389.5C437.0 403.2 434.7 415.7 434.4 417.2L433.8 420.0L414.3 420.0L394.8 420.0L395.4 417.2ZM536.0 418.8C536.0 416.3 557.5 296.0 558.6 292.8C559.1 291.1 557.6 291.0 536.0 291.0C513.9 291.0 512.8 290.9 513.2 289.2C513.5 288.1 515.0 280.5 516.6 272.2L519.5 257.0L565.0 257.0C590.0 257.0 620.2 257.3 632.2 257.7C653.6 258.3 653.8 258.3 653.1 260.4C652.7 261.6 651.0 268.9 649.4 276.8L646.6 291.0L622.5 291.0L598.4 291.0L593.7 318.2C591.1 333.2 586.5 359.7 583.5 377.0C580.4 394.3 577.6 410.9 577.2 413.8L576.5 419.1L556.2 419.3C545.1 419.4 536.0 419.2 536.0 418.8ZM734.5 417.8C734.8 416.5 738.0 401.1 741.5 383.5C745.1 365.9 751.0 337.3 754.6 320.0C758.2 302.7 762.5 281.4 764.3 272.8L767.4 257.0L786.3 257.0L805.2 257.0L804.5 260.8C804.2 262.8 799.4 285.6 794.0 311.5C786.0 349.8 773.0 416.4 773.0 419.3C773.0 419.7 764.2 420.0 753.5 420.0L734.0 420.0L734.5 417.8ZM910.5 417.8C910.7 416.5 913.2 403.1 916.0 388.0C918.7 372.9 923.4 347.5 926.5 331.6C929.5 315.6 932.0 301.8 932.0 300.8C932.0 299.1 933.3 299.0 948.6 299.0L965.1 299.0L964.5 304.8C964.1 307.9 963.6 311.4 963.3 312.5C962.9 313.9 964.3 313.1 967.7 309.8C977.0 301.2 988.3 297.0 1002.3 297.0C1016.7 297.0 1027.4 301.1 1034.7 309.4C1043.6 319.5 1044.1 330.5 1037.4 366.7C1033.7 386.9 1028.1 418.7 1028.0 419.8C1028.0 419.9 1019.4 420.0 1008.9 420.0C991.2 420.0 989.9 419.9 990.4 418.2C990.7 417.3 992.3 409.8 993.9 401.5C995.6 393.2 998.7 377.7 1000.9 367.0C1005.7 344.1 1006.1 336.9 1002.7 331.9C1000.0 327.8 995.6 326.1 987.6 326.1C979.6 326.0 974.7 327.6 969.6 332.1C962.1 338.7 960.5 344.2 952.5 390.0C950.0 404.6 947.7 417.3 947.4 418.2C946.9 419.8 945.1 420.0 928.4 420.0L910.0 420.0L910.5 417.8ZM668.5 393.9C677.2 392.3 683.2 388.9 686.8 383.5C689.8 379.0 692.8 369.5 691.6 368.3C690.7 367.4 661.3 369.7 656.7 371.0C647.1 373.8 641.8 384.3 647.1 390.3C651.0 394.6 658.1 395.8 668.5 393.9ZM338.2 389.7C350.0 382.8 357.1 367.9 357.1 349.7C357.1 342.1 356.8 340.0 354.5 335.4C350.5 327.3 346.0 324.6 335.5 324.2C325.1 323.7 319.1 326.1 312.5 333.1C303.8 342.4 299.4 355.3 300.2 369.6C300.5 376.1 301.2 378.6 303.3 382.3C308.1 390.4 313.8 393.1 325.6 392.7C332.2 392.4 334.5 391.9 338.2 389.7ZM877.0 340.0C877.0 329.2 871.4 324.0 859.8 324.0C847.3 324.0 840.0 328.2 834.2 338.8L830.8 345.0L853.9 345.0L877.0 345.0L877.0 340.0Z" fill="#0755E9"/>
</g>
</svg>
