<svg width="492" height="474" viewBox="0 0 492 474" fill="none" xmlns="http://www.w3.org/2000/svg">
<path opacity="0.15" fill-rule="evenodd" clip-rule="evenodd" d="M201.762 414.849C285.083 414.849 352.629 349.775 352.629 269.502C352.629 189.229 285.083 124.155 201.762 124.155C118.441 124.155 50.8953 189.229 50.8953 269.502C50.8953 349.775 118.441 414.849 201.762 414.849ZM201.762 417.09C286.368 417.09 354.954 351.013 354.954 269.502C354.954 187.992 286.368 121.915 201.762 121.915C117.156 121.915 48.5698 187.992 48.5698 269.502C48.5698 351.013 117.156 417.09 201.762 417.09Z" fill="white"/>
<path opacity="0.08" fill-rule="evenodd" clip-rule="evenodd" d="M246 470.402C379.8 470.402 488.266 365.905 488.266 237C488.266 108.095 379.8 3.59772 246 3.59772C112.2 3.59772 3.73435 108.095 3.73435 237C3.73435 365.905 112.2 470.402 246 470.402ZM246 474C381.862 474 492 367.892 492 237C492 106.109 381.862 0 246 0C110.138 0 0 106.109 0 237C0 367.892 110.138 474 246 474Z" fill="white"/>
<path opacity="0.25" fill-rule="evenodd" clip-rule="evenodd" d="M176.033 360.971C133.748 360.971 99.4687 327.946 99.4687 287.207C99.4687 246.469 133.748 213.444 176.033 213.444C218.318 213.444 252.597 246.469 252.597 287.207C252.597 327.946 218.318 360.971 176.033 360.971ZM176.033 363.214C132.461 363.214 97.1397 329.185 97.1397 287.207C97.1397 245.23 132.461 211.2 176.033 211.2C219.605 211.2 254.926 245.23 254.926 287.207C254.926 329.185 219.605 363.214 176.033 363.214Z" fill="white"/>
<path opacity="0.4" fill-rule="evenodd" clip-rule="evenodd" d="M159.362 328.346C144.847 328.346 133.081 317.062 133.081 303.143C133.081 289.223 144.847 277.939 159.362 277.939C173.876 277.939 185.642 289.223 185.642 303.143C185.642 317.062 173.876 328.346 159.362 328.346ZM159.362 330.586C143.557 330.586 130.745 318.299 130.745 303.143C130.745 287.986 143.557 275.699 159.362 275.699C175.166 275.699 187.979 287.986 187.979 303.143C187.979 318.299 175.166 330.586 159.362 330.586Z" fill="white"/>
</svg>
