<svg width="268" height="217" viewBox="0 0 268 217" fill="none" xmlns="http://www.w3.org/2000/svg">
<rect width="147" height="147" transform="matrix(0.866025 -0.5 0.866025 0.5 13 129.5)" fill="rgba(255,255,255,0.06)" stroke="rgba(255,255,255,0.25)" stroke-width="1"/>
<circle cx="7.23128" cy="7.23128" r="7.23128" transform="matrix(0.866025 -0.5 0.866025 0.5 107.778 176.233)" fill="white"/>
<circle cx="7.23128" cy="7.23128" r="7.23128" transform="matrix(0.866025 -0.5 0.866025 0.5 42.5361 128.852)" fill="white"/>
<circle cx="7.23128" cy="7.23128" r="7.23128" transform="matrix(0.866025 -0.5 0.866025 0.5 83.6631 125.831)" fill="white"/>
<circle cx="7.23128" cy="7.23128" r="7.23128" transform="matrix(0.866025 -0.5 0.866025 0.5 179.937 141.049)" fill="white"/>
<circle cx="7.23128" cy="7.23128" r="7.23128" transform="matrix(0.866025 -0.5 0.866025 0.5 143.297 145.797)" fill="white"/>
<circle cx="7.23128" cy="7.23128" r="7.23128" transform="matrix(0.866025 -0.5 0.866025 0.5 139.745 86.1123)" fill="white"/>
<circle cx="7.23128" cy="7.23128" r="7.23128" transform="matrix(0.866025 -0.5 0.866025 0.5 156.943 103.165)" fill="white"/>
<circle cx="7.23128" cy="7.23128" r="7.23128" transform="matrix(0.866025 -0.5 0.866025 0.5 94.5059 91.7246)" fill="white"/>
<circle cx="7.23128" cy="7.23128" r="7.23128" transform="matrix(0.866025 -0.5 0.866025 0.5 193.396 119.247)" fill="white"/>
<circle cx="7.23128" cy="7.23128" r="7.23128" transform="matrix(0.866025 -0.5 0.866025 0.5 75.251 157.454)" fill="white"/>
<circle cx="7.23128" cy="7.23128" r="7.23128" transform="matrix(0.866025 -0.5 0.866025 0.5 146.475 171.161)" fill="white"/>
<g clip-path="url(#clip0_848_5)">
<path d="M145.512 131.252C145.449 131.288 145.373 131.318 145.29 131.339L142.531 132.045C142.366 132.086 142.175 132.095 141.985 132.068C141.794 132.042 141.614 131.983 141.47 131.899L138.034 129.915C138.032 129.915 138.03 129.915 138.028 129.914L128.178 129.063C127.96 129.044 127.746 128.99 127.563 128.907C127.379 128.823 127.233 128.715 127.142 128.594C127.052 128.472 127.02 128.344 127.051 128.223C127.081 128.102 127.174 127.994 127.316 127.912L137.743 121.892C137.885 121.81 138.072 121.757 138.281 121.739C138.491 121.721 138.713 121.739 138.923 121.792C139.133 121.844 139.322 121.928 139.466 122.034C139.61 122.14 139.704 122.264 139.736 122.39L141.211 128.077C141.211 128.079 141.211 128.08 141.212 128.081L145.417 130.508C145.508 130.561 145.583 130.621 145.637 130.687C145.691 130.753 145.723 130.822 145.732 130.891C145.741 130.961 145.726 131.028 145.689 131.09C145.651 131.152 145.591 131.207 145.512 131.252Z" fill="white"/>
</g>
<line x1="0.5" y1="-0.5" x2="18.6093" y2="-0.5" transform="matrix(1.22283 -0.039536 0.0684784 0.706001 104.974 127.989)" stroke="rgba(255,255,255,0.5)" stroke-linecap="round" stroke-dasharray="2 2"/>
<line y1="-0.5" x2="54.1152" y2="-0.5" transform="matrix(1.21943 -0.0658165 0.113998 0.704037 61.417 132.414)" stroke="rgba(255,255,255,0.5)" stroke-dasharray="2 2"/>
<line y1="-0.5" x2="42.7488" y2="-0.5" transform="matrix(-0.253632 0.691778 -1.19819 -0.146435 150.4 92.0486)" stroke="rgba(255,255,255,0.5)" stroke-dasharray="2 2"/>
<line y1="-0.5" x2="30.4637" y2="-0.5" transform="matrix(-0.828424 0.520805 -0.902061 -0.478291 165.729 108.238)" stroke="rgba(255,255,255,0.5)" stroke-dasharray="2 2"/>
<line y1="-0.5" x2="47.8458" y2="-0.5" transform="matrix(-1.19558 0.153393 -0.265685 -0.690269 197.883 119.679)" stroke="rgba(255,255,255,0.5)" stroke-dasharray="2 2"/>
<line y1="-0.5" x2="33.7873" y2="-0.5" transform="matrix(-1.16189 -0.223607 0.387298 -0.67082 184.984 138.566)" stroke="rgba(255,255,255,0.5)" stroke-dasharray="2 2"/>
<line y1="-0.5" x2="15.3503" y2="-0.5" transform="matrix(-0.401882 -0.667955 1.15693 -0.232026 149.652 142.128)" stroke="rgba(255,255,255,0.5)" stroke-dasharray="2 2"/>
<line y1="-0.5" x2="59.1036" y2="-0.5" transform="matrix(0.265684 -0.690269 1.19558 0.153393 118.06 170.297)" stroke="rgba(255,255,255,0.5)" stroke-dasharray="2 2"/>
<rect x="0.874968" width="120.99" height="120.99" transform="matrix(0.866025 -0.5 0.866025 0.5 34.0323 156.243)" stroke="rgba(255,255,255,0.5)" stroke-width="1.01033"/>
<rect width="122" height="122" transform="matrix(0.866025 -0.5 0.866025 0.5 21 104)" fill="rgba(255,255,255,0.04)"/>
<rect width="147" height="147" transform="matrix(0.866025 -0.5 0.866025 0.5 0 73.5)" fill="rgba(255,255,255,0.06)" stroke="rgba(255,255,255,0.25)" stroke-width="1"/>
<defs>
<clipPath id="clip0_848_5">
<rect width="14.6784" height="17.0405" fill="white" transform="matrix(0.866025 -0.5 0.866025 0.5 124.79 127.773)"/>
</clipPath>
</defs>
</svg>
