<svg width="367" height="236" viewBox="0 0 367 236" fill="none" xmlns="http://www.w3.org/2000/svg">
<rect x="1.25985" width="174.211" height="174.211" transform="matrix(0.866025 -0.5 0.866025 0.5 30.724 148.098)" stroke="rgba(255,255,255,0.5)" stroke-width="1.45475"/>
<rect width="211.66" height="211.66" transform="matrix(0.866025 -0.5 0.866025 0.5 0 105.83)" fill="rgba(255,255,255,0.06)" stroke="rgba(255,255,255,0.25)" stroke-width="1"/>
<circle cx="10.4121" cy="10.4121" r="10.4121" transform="matrix(0.866025 -0.5 0.866025 0.5 136.468 173.12)" fill="white"/>
<circle cx="10.4121" cy="10.4121" r="10.4121" transform="matrix(0.866025 -0.5 0.866025 0.5 42.5286 104.897)" fill="white"/>
<circle cx="10.4121" cy="10.4121" r="10.4121" transform="matrix(0.866025 -0.5 0.866025 0.5 101.745 100.546)" fill="white"/>
<circle cx="10.4121" cy="10.4121" r="10.4121" transform="matrix(0.866025 -0.5 0.866025 0.5 240.366 122.458)" fill="white"/>
<circle cx="10.4121" cy="10.4121" r="10.4121" transform="matrix(0.866025 -0.5 0.866025 0.5 187.61 129.296)" fill="white"/>
<circle cx="10.4121" cy="10.4121" r="10.4121" transform="matrix(0.866025 -0.5 0.866025 0.5 182.495 43.3577)" fill="white"/>
<circle cx="10.4121" cy="10.4121" r="10.4121" transform="matrix(0.866025 -0.5 0.866025 0.5 207.259 67.9114)" fill="white"/>
<circle cx="10.4121" cy="10.4121" r="10.4121" transform="matrix(0.866025 -0.5 0.866025 0.5 117.357 51.4386)" fill="white"/>
<circle cx="10.4121" cy="10.4121" r="10.4121" transform="matrix(0.866025 -0.5 0.866025 0.5 259.746 91.0667)" fill="white"/>
<circle cx="10.4121" cy="10.4121" r="10.4121" transform="matrix(0.866025 -0.5 0.866025 0.5 89.6328 146.079)" fill="white"/>
<circle cx="10.4121" cy="10.4121" r="10.4121" transform="matrix(0.866025 -0.5 0.866025 0.5 192.186 165.816)" fill="white"/>
<g clip-path="url(#clip0_848_4)">
<path d="M190.8 108.352C190.708 108.405 190.6 108.448 190.479 108.478L186.507 109.494C186.27 109.554 185.995 109.566 185.721 109.528C185.447 109.49 185.187 109.405 184.979 109.284L180.032 106.428C180.029 106.427 180.026 106.427 180.023 106.427L165.842 105.201C165.527 105.173 165.219 105.095 164.955 104.975C164.69 104.856 164.48 104.699 164.35 104.525C164.219 104.35 164.173 104.165 164.218 103.991C164.262 103.817 164.395 103.661 164.6 103.543L179.613 94.8755C179.818 94.7569 180.087 94.6802 180.388 94.6546C180.69 94.6289 181.011 94.6554 181.313 94.7309C181.615 94.8063 181.886 94.9276 182.094 95.0803C182.301 95.2329 182.437 95.4106 182.484 95.5922L184.606 103.781C184.607 103.783 184.607 103.785 184.608 103.786L190.662 107.282C190.793 107.357 190.901 107.445 190.979 107.539C191.057 107.634 191.104 107.734 191.117 107.833C191.13 107.933 191.108 108.03 191.054 108.119C191 108.208 190.913 108.287 190.8 108.352Z" fill="white"/>
</g>
<line x1="0.5" y1="-0.5" x2="27.0148" y2="-0.5" transform="matrix(1.22283 -0.039536 0.0684784 0.706001 132.43 103.654)" stroke="rgba(255,255,255,0.5)" stroke-linecap="round" stroke-dasharray="2 2"/>
<line y1="-0.5" x2="77.9186" y2="-0.5" transform="matrix(1.21943 -0.0658165 0.113998 0.704037 69.7144 110.026)" stroke="rgba(255,255,255,0.5)" stroke-dasharray="2 2"/>
<line y1="-0.5" x2="61.5525" y2="-0.5" transform="matrix(-0.253632 0.691778 -1.19819 -0.146435 197.838 51.9048)" stroke="rgba(255,255,255,0.5)" stroke-dasharray="2 2"/>
<line y1="-0.5" x2="43.8635" y2="-0.5" transform="matrix(-0.828424 0.520805 -0.902061 -0.478291 219.91 75.2153)" stroke="rgba(255,255,255,0.5)" stroke-dasharray="2 2"/>
<line y1="-0.5" x2="68.8914" y2="-0.5" transform="matrix(-1.19558 0.153393 -0.265685 -0.690269 266.207 91.6882)" stroke="rgba(255,255,255,0.5)" stroke-dasharray="2 2"/>
<line y1="-0.5" x2="48.6491" y2="-0.5" transform="matrix(-1.16189 -0.223607 0.387298 -0.67082 247.634 118.884)" stroke="rgba(255,255,255,0.5)" stroke-dasharray="2 2"/>
<line y1="-0.5" x2="22.1023" y2="-0.5" transform="matrix(-0.401882 -0.667955 1.15693 -0.232026 196.761 124.012)" stroke="rgba(255,255,255,0.5)" stroke-dasharray="2 2"/>
<line y1="-0.5" x2="85.1012" y2="-0.5" transform="matrix(0.265684 -0.690269 1.19558 0.153393 151.272 164.573)" stroke="rgba(255,255,255,0.5)" stroke-dasharray="2 2"/>
<line x1="114.914" y1="94.4924" x2="74.9138" y2="87.4924" stroke="rgba(255,255,255,0.6)"/>
<path d="M34 76.9999C34 74.7907 35.7909 72.9999 38 72.9999H71C73.2091 72.9999 75 74.7907 75 76.9999V89.9999C75 92.209 73.2091 93.9999 71 93.9999H38C35.7909 93.9999 34 92.209 34 89.9999V76.9999Z" fill="rgba(255,255,255,0.08)" stroke="rgba(255,255,255,0.3)" stroke-width="0.75"/>
<path d="M237 23.9999C237 21.7907 238.791 19.9999 241 19.9999H274C276.209 19.9999 278 21.7907 278 23.9999V36.9999C278 39.209 276.209 40.9999 274 40.9999H241C238.791 40.9999 237 39.209 237 36.9999V23.9999Z" fill="rgba(255,255,255,0.08)" stroke="rgba(255,255,255,0.3)" stroke-width="0.75"/>
<line x1="39" y1="79.4999" x2="68" y2="79.4999" stroke="rgba(255,255,255,0.3)"/>
<line x1="39" y1="83.4999" x2="64" y2="83.4999" stroke="rgba(255,255,255,0.3)"/>
<line x1="39" y1="87.4999" x2="55" y2="87.4999" stroke="rgba(255,255,255,0.3)"/>
<line x1="243" y1="26.4999" x2="272" y2="26.4999" stroke="rgba(255,255,255,0.3)"/>
<line x1="243" y1="30.4999" x2="268" y2="30.4999" stroke="rgba(255,255,255,0.3)"/>
<line x1="243" y1="34.4999" x2="259" y2="34.4999" stroke="rgba(255,255,255,0.3)"/>
<line x1="224.6" y1="60.6999" x2="239.6" y2="40.6999" stroke="rgba(255,255,255,0.6)"/>
<line x1="144.408" y1="56.7111" x2="173.408" y2="97.7111" stroke="rgba(255,255,255,0.5)" stroke-dasharray="2 2"/>
<line x1="114.734" y1="139.577" x2="168.734" y2="105.577" stroke="rgba(255,255,255,0.5)" stroke-dasharray="2 2"/>
<defs>
<clipPath id="clip0_848_4">
<rect width="21.1349" height="24.5359" fill="white" transform="matrix(0.866025 -0.5 0.866025 0.5 160.962 103.344)"/>
</clipPath>
</defs>
</svg>
