<svg width="93" height="29" viewBox="0 0 93 29" fill="none" xmlns="http://www.w3.org/2000/svg">
<path d="M11.1291 28.4588C9.62251 28.4588 8.30066 28.2182 7.16358 27.7372C6.05493 27.226 5.18791 26.3992 4.56252 25.2566C3.93713 24.084 3.62443 22.4904 3.62443 20.4759V10.9596H0V6.08865H3.62443L4.26404 0H9.38088V6.08865H15.0094V10.9596H9.38088V20.5661C9.38088 21.6485 9.59409 22.4002 10.0205 22.8212C10.4469 23.212 11.1718 23.4075 12.1951 23.4075H14.8815V28.4588H11.1291Z" fill="#0755E9"/>
<path d="M26.8041 29C24.6437 29 22.7249 28.5189 21.0477 27.5568C19.3989 26.5946 18.1055 25.2416 17.1674 23.4977C16.2293 21.7538 15.7603 19.7543 15.7603 17.4992C15.7603 15.154 16.2151 13.0944 17.1248 11.3204C18.0629 9.51633 19.3563 8.10316 21.0051 7.08087C22.6822 6.05858 24.6153 5.54744 26.8041 5.54744C28.9362 5.54744 30.7981 6.02851 32.39 6.99067C33.9819 7.95283 35.2327 9.27579 36.1424 10.9596C37.052 12.6133 37.5069 14.4925 37.5069 16.5972C37.5069 16.8979 37.4927 17.2436 37.4642 17.6345C37.4642 17.9953 37.45 18.3712 37.4216 18.7621H19.8538V15.0187H31.6651C31.5799 13.6055 31.0824 12.478 30.1727 11.6361C29.2915 10.7942 28.1828 10.3733 26.8468 10.3733C25.8518 10.3733 24.9422 10.6138 24.1178 11.0949C23.2934 11.5459 22.6396 12.2525 22.1563 13.2146C21.6731 14.1467 21.4315 15.3344 21.4315 16.7776V18.0855C21.4315 19.3183 21.6589 20.3857 22.1137 21.2877C22.5685 22.1597 23.1939 22.8362 23.9899 23.3173C24.8143 23.7983 25.7381 24.0389 26.7615 24.0389C27.8133 24.0389 28.6945 23.7983 29.4052 23.3173C30.1159 22.8061 30.656 22.1597 31.0255 21.3779H36.8673C36.4693 22.7911 35.8013 24.084 34.8632 25.2566C33.9251 26.3992 32.7738 27.3162 31.4093 28.0078C30.0448 28.6693 28.5098 29 26.8041 29Z" fill="#0755E9"/>
<path d="M49.3972 28.4588C47.8906 28.4588 46.5687 28.2182 45.4317 27.7372C44.323 27.226 43.456 26.3992 42.8306 25.2566C42.2052 24.084 41.8925 22.4904 41.8925 20.4759V10.9596H38.2681V6.08865H41.8925L42.5321 0H47.649V6.08865H53.2775V10.9596H47.649V20.5661C47.649 21.6485 47.8622 22.4002 48.2886 22.8212C48.715 23.212 49.4399 23.4075 50.4632 23.4075H53.1496V28.4588H49.3972Z" fill="#0755E9"/>
<path d="M55.4225 28.4588V3.41704e-06H61.0937V9.83204H61.2642C62.0033 8.44894 62.9698 7.39658 64.1638 6.67496C65.3577 5.92328 66.7648 5.54744 68.3852 5.54744C70.0908 5.54744 71.5406 5.95335 72.7345 6.76517C73.9284 7.54692 74.8381 8.70451 75.4635 10.238C76.0889 11.7714 76.4016 13.6656 76.4016 15.9207V28.4588H70.6878V16.4619C70.6878 14.5977 70.3324 13.1695 69.6217 12.1773C68.9395 11.1851 67.8309 10.689 66.2958 10.689C65.3009 10.689 64.4196 10.9445 63.6521 11.4557C62.8846 11.9368 62.2734 12.6433 61.8186 13.5754C61.3922 14.4774 61.179 15.5899 61.179 16.9129V28.4588H55.4225Z" fill="#0755E9"/>
<path d="M79.6109 28.4588V6.08865H84.5146L85.0262 11.0047H85.1968C85.8222 9.4111 86.5045 8.23847 87.2436 7.48678C87.9827 6.70503 88.8212 6.19388 89.7593 5.95335C90.7258 5.68274 91.8061 5.54744 93 5.54744V11.9969H91.4223C90.4558 11.9969 89.5888 12.1172 88.8212 12.3577C88.0821 12.5682 87.4568 12.929 86.9451 13.4401C86.4334 13.9212 86.0354 14.5677 85.7511 15.3795C85.4953 16.1913 85.3674 17.1685 85.3674 18.311V28.4588H79.6109Z" fill="#0755E9"/>
</svg>
