<svg width="130" height="112" viewBox="0 0 130 112" fill="none" xmlns="http://www.w3.org/2000/svg">
<path d="M36.8088 20.9246C36.8088 17.7244 39.4031 15.1301 42.6033 15.1301H86.7108C89.911 15.1301 92.5052 17.7244 92.5052 20.9246V20.9246C92.5052 24.1248 89.911 26.719 86.7108 26.719H42.6033C39.4031 26.719 36.8088 24.1248 36.8088 20.9246V20.9246Z" fill="white"/>
<path d="M48.9346 0C56.6567 0 63.0828 5.54833 64.4443 12.876H53.6758C52.2598 11.1105 50.0866 9.97856 47.6475 9.97852H17.0635C12.796 9.97852 9.33594 13.4386 9.33594 17.7061V23.498C9.33598 27.7655 12.796 31.2256 17.0635 31.2256H47.6475C49.7763 31.2255 51.7041 30.3645 53.1016 28.9717H64.3818C62.8947 36.1397 56.5435 41.5264 48.9346 41.5264H15.7764C7.0637 41.5264 0.000186902 34.4636 0 25.751V15.7754C0.000253852 7.06282 7.06374 0 15.7764 0H48.9346ZM113.646 0C122.358 0 129.422 7.06358 129.422 15.7764V25.751C129.422 34.4636 122.358 41.5264 113.646 41.5264H80.4863C72.8778 41.5259 66.5279 36.1394 65.041 28.9717H76.3193C77.7168 30.3645 79.6447 31.2254 81.7734 31.2256H112.357C116.625 31.2256 120.085 27.7655 120.085 23.498V17.7061C120.085 13.4386 116.625 9.97852 112.357 9.97852H81.7734C79.3344 9.97873 77.1612 11.1106 75.7451 12.876H64.9775C66.3392 5.54877 72.7647 0.000439674 80.4863 0H113.646Z" fill="white"/>
<path d="M72.4358 42.6428C80.0568 43.7577 85.9084 50.3208 85.9084 58.2512V96.2268C85.9083 104.939 78.8456 112.003 70.1331 112.003H59.2913C50.5785 112.003 43.515 104.94 43.5149 96.2268V58.2512C43.5149 50.4345 49.2003 43.9457 56.6614 42.6936V54.1555C54.8606 55.5703 53.7024 57.7662 53.7024 60.2336V94.2444C53.7025 98.5118 57.1625 101.972 61.4299 101.972H67.6653C71.9327 101.972 75.3917 98.5118 75.3918 94.2444V60.2336C75.3918 57.7671 74.2352 55.5714 72.4358 54.1565V42.6428Z" fill="white"/>
<path d="M64.8271 36.5251C66.2546 38.7076 68.2085 40.5134 70.5078 41.7654V62.8826C70.5077 66.0831 67.9124 68.6775 64.7119 68.6775C61.5115 68.6774 58.9171 66.083 58.917 62.8826V41.8884C61.3156 40.6331 63.3525 38.7799 64.8271 36.5251Z" fill="white"/>
</svg>
