<svg width="590" height="186" viewBox="0 0 590 186" fill="none" xmlns="http://www.w3.org/2000/svg">
<path d="M574.964 55.5383C579.715 55.5384 583.333 56.7682 585.714 59.3215C588.255 61.6983 589.5 64.9908 589.5 69.1311C589.5 73.259 588.436 76.6183 586.26 79.1555C584.083 81.6945 581.256 82.9661 577.823 82.9661C574.989 82.966 572.829 82.3078 571.48 80.8694C570.227 79.5342 569.242 78.03 568.526 76.3596L568.514 76.3323L568.505 76.303C567.993 74.55 567.398 73.0481 566.725 71.7922C566.417 71.2171 566.024 70.8053 565.552 70.5344C565.079 70.2627 564.496 70.1165 563.787 70.1165C562.677 70.1166 561.3 70.7799 559.639 72.2893C557.992 73.7868 556.133 76.0538 554.064 79.1096C549.927 85.2199 545.434 93.516 540.588 104.008L540.589 104.009C535.918 114.338 531.331 125.962 526.83 138.882C522.503 151.798 518.695 165.037 515.407 178.599L515.404 178.61L515.401 178.621C515.117 179.591 514.631 180.361 513.917 180.884C513.204 181.406 512.312 181.648 511.282 181.648H500.625C499.366 181.648 498.341 181.38 497.72 180.696C497.082 179.992 497.002 178.999 497.28 177.876L497.281 177.872L521.974 81.1301C522.832 77.6076 522.891 74.9785 522.248 73.179L522.239 73.1555L522.233 73.1311C521.998 72.1814 521.541 71.5064 520.879 71.0608C520.208 70.6087 519.276 70.3586 518.04 70.3586C515.149 70.3587 511.811 72.3917 508.02 76.7317C504.445 80.8605 500.315 88.8622 495.641 100.808L495.497 101.211C495.144 102.128 494.673 102.865 494.064 103.393C493.359 104.003 492.503 104.303 491.527 104.303C490.163 104.303 489.079 103.92 488.606 102.927C488.164 101.998 488.369 100.737 488.974 99.2747C492.793 88.1021 496.796 79.3307 500.987 72.9778L500.992 72.97H500.993C505.346 66.6346 509.727 62.1258 514.144 59.4885C518.525 56.8732 522.599 55.5384 526.357 55.5383C532.207 55.5383 536.466 57.6167 539.002 61.842H539.001C541.541 65.9102 541.574 72.5571 539.319 81.6174V81.6184L536.466 92.9827C536.388 93.5023 536.423 93.8384 536.503 94.0393C536.571 94.2074 536.676 94.3002 536.868 94.345C537.076 94.3936 537.26 94.3612 537.452 94.2336C537.66 94.0946 537.894 93.8294 538.133 93.3831C544.718 79.3237 550.721 69.4885 556.152 63.9329C561.607 58.3524 567.883 55.5383 574.964 55.5383Z" stroke="#0048D1"/>
<path d="M423.2 0.5C424.329 0.5 425.247 0.832291 425.766 1.63867C426.264 2.41315 426.298 3.48747 426.029 4.74219L426.027 4.74902L426.026 4.75684L400.558 107.776C400.481 108.294 400.515 108.63 400.596 108.83C400.664 108.998 400.769 109.091 400.96 109.136L401.113 109.156C401.261 109.162 401.401 109.12 401.544 109.024C401.753 108.885 401.987 108.62 402.226 108.174C409.165 94.9051 415.767 84.4481 422.034 76.8154C428.291 69.1964 434.138 63.733 439.578 60.459L439.584 60.4561C445.175 57.1967 450.288 55.5382 454.911 55.5381C461.471 55.5381 466.326 58.0325 469.375 63.0527C472.436 68.091 472.383 75.7072 469.428 85.7598L469.427 85.7588L449.675 156.067L449.674 156.066C448.469 160.564 448.425 163.811 449.388 165.907C449.871 166.958 450.543 167.724 451.398 168.231C452.256 168.741 453.333 169.01 454.652 169.01C457.895 169.01 461.146 167.046 464.396 162.897C467.631 158.605 471.161 150.518 474.97 138.565C475.251 137.611 475.709 136.848 476.371 136.325C477.04 135.798 477.871 135.551 478.825 135.551C479.568 135.551 480.214 135.679 480.714 135.989C481.22 136.304 481.527 136.778 481.645 137.368C482.023 138.451 482.009 139.68 481.648 141.029L481.644 141.043C478.345 152.055 474.778 160.747 470.935 167.102L470.932 167.106C467.101 173.278 463.155 177.632 459.078 180.114L459.079 180.115C455.198 182.584 451.206 183.83 447.114 183.83C440.722 183.83 435.877 181.333 432.657 176.327C429.418 171.291 429.294 163.592 432.075 153.376L432.077 153.371L452.091 83.0576L452.094 83.0498C453.041 79.9184 453.571 77.2919 453.698 75.1631C453.825 73.0276 453.543 71.4423 452.918 70.3496L452.911 70.3369L452.905 70.3252C452.328 69.1722 451.622 68.3376 450.8 67.79C449.981 67.2446 449.019 66.9639 447.894 66.9639C444.274 66.9639 440.061 69.1209 435.239 73.6191C430.598 77.9479 425.683 83.9741 420.497 91.7129L420.498 91.7139C415.487 99.2904 410.557 107.918 405.713 117.601L405.714 117.602C401.043 127.122 396.718 137.21 392.738 147.863L392.737 147.866C388.758 158.355 385.559 168.599 383.138 178.599L383.135 178.61L383.131 178.621C382.848 179.591 382.362 180.361 381.648 180.885C380.935 181.407 380.044 181.648 379.013 181.648H368.096C366.837 181.648 365.811 181.38 365.191 180.696C364.552 179.992 364.473 178.999 364.751 177.876V177.875L402.7 25.8525L402.703 25.8418L402.707 25.8311C403.133 24.4021 403.336 23.2205 403.336 22.2764C403.336 21.3314 403.133 20.6645 402.789 20.2158L402.774 20.1953L402.76 20.1729C402.202 19.2618 400.867 18.6302 398.474 18.4707H398.461V18.4697L390.663 17.7432V17.7422C389.328 17.6573 388.261 17.3417 387.574 16.7012C386.853 16.0278 386.644 15.089 386.838 14.0049L386.841 13.9912L386.844 13.9766C387.257 12.2438 388.71 11.271 390.893 10.9316C397.118 9.96388 402.645 8.8354 407.476 7.54785C412.282 6.10529 416.117 4.27149 418.997 2.05859L419.015 2.04492C420.453 1.03883 421.852 0.500004 423.2 0.5Z" stroke="#0048D1"/>
<path d="M313.777 13.3503V49.7195H354.976V73.6316H313.777V125.988C313.777 131.234 313.821 135.834 313.907 139.787L313.947 140.509C314.175 143.837 314.956 146.584 316.265 148.772L316.554 149.232L316.557 149.236C319.576 153.929 324.401 156.576 331.124 157.132C337.923 157.694 345.683 157.373 354.407 156.165L354.976 156.086V181.568L354.562 181.64C345.26 183.262 336.129 183.952 327.17 183.709V183.708C318.283 183.545 310.296 182.042 303.214 179.187L303.209 179.185C296.096 176.236 290.68 171.6 286.983 165.277L286.979 165.271C283.737 159.55 282.022 153.692 281.846 147.703C281.673 141.797 281.586 135.124 281.586 127.685V73.6316H256.113V49.7195H281.586V13.3503H313.777Z" stroke="white"/>
<path d="M180.885 46.0828C195.513 46.0828 207.955 49.2913 218.186 55.7341H218.187C228.503 62.0949 236.151 71.1081 241.129 82.7556C246.106 94.4032 247.973 108.106 246.756 123.845L246.719 124.306H145.23C146.327 133.374 149.25 140.645 153.972 146.151C160.093 153.287 169.036 156.887 180.885 156.887C188.528 156.887 195.067 155.325 200.522 152.224C206.064 149.043 210.329 144.471 213.319 138.494L213.504 138.125L213.902 138.236L244.834 146.966L245.394 147.124L245.152 147.653C239.737 159.548 231.349 168.8 219.996 175.398L219.995 175.397C208.738 181.99 196.305 185.285 182.705 185.285C168.427 185.285 155.867 182.402 145.04 176.619C134.218 170.839 125.745 162.815 119.633 152.552L119.631 152.549C113.602 142.279 110.594 130.471 110.594 117.138C110.595 102.764 113.555 90.2706 119.496 79.6765C125.432 69.0091 133.687 60.7384 144.253 54.8738C154.821 49.0078 167.037 46.0828 180.885 46.0828ZM182.185 72.6619C169.459 72.6619 160.09 76.3481 153.975 83.6365L153.974 83.6394C150.139 88.1611 147.487 94.0222 146.039 101.243H213.891C212.737 93.056 210.346 86.7513 206.749 82.2957C201.589 75.9048 193.44 72.662 182.185 72.6619Z" stroke="white"/>
<path d="M58.1641 13.3503V49.7195H99.3633V73.6316H58.1641V125.988C58.1641 131.234 58.2076 135.834 58.2939 139.787L58.334 140.509C58.5622 143.837 59.3425 146.584 60.6523 148.772L60.9414 149.232L60.9443 149.236C63.9628 153.929 68.7877 156.576 75.5107 157.132C82.3101 157.694 90.0699 157.373 98.7939 156.165L99.3633 156.086V181.568L98.9492 181.64C89.6474 183.262 80.5159 183.952 71.5566 183.709V183.708C62.6702 183.545 54.6825 182.042 47.6006 179.187L47.5957 179.185C40.4828 176.236 35.0673 171.6 31.3701 165.277L31.3662 165.271C28.1244 159.55 26.4093 153.692 26.2334 147.703C26.0599 141.797 25.9727 135.124 25.9727 127.685V73.6316H0.5V49.7195H25.9727V13.3503H58.1641Z" stroke="white"/>
</svg>
