<svg width="64" height="64" viewBox="0 0 64 64" fill="none" xmlns="http://www.w3.org/2000/svg">
<g clip-path="url(#clip0_131_117)">
<mask id="mask0_131_117" style="mask-type:luminance" maskUnits="userSpaceOnUse" x="0" y="0" width="64" height="64">
<path d="M64 32C64 14.3269 49.6731 0 32 0C14.3269 0 0 14.3269 0 32C0 49.6731 14.3269 64 32 64C49.6731 64 64 49.6731 64 32Z" fill="white"/>
</mask>
<g mask="url(#mask0_131_117)">
<path d="M64 32C64 14.3269 49.6731 0 32 0C14.3269 0 0 14.3269 0 32C0 49.6731 14.3269 64 32 64C49.6731 64 64 49.6731 64 32Z" fill="white" fill-opacity="0.1"/>
<path d="M0 33H67" stroke="white"/>
<path d="M32 0V67" stroke="white"/>
<path d="M0 17H67" stroke="white"/>
<path d="M0 48H67" stroke="white"/>
<path d="M32.0001 0.245117C36.2731 0.245117 40.2101 3.77112 43.0941 9.62812C45.9691 15.4691 47.7551 23.5551 47.7551 32.5001C47.7551 41.4451 45.9691 49.5311 43.0941 55.3721C40.2101 61.2291 36.2731 64.7551 32.0001 64.7551C27.7271 64.7551 23.7901 61.2291 20.9061 55.3721C18.0311 49.5311 16.2451 41.4451 16.2451 32.5001C16.2451 23.5551 18.0311 15.4691 20.9061 9.62812C23.7901 3.77112 27.7271 0.245117 32.0001 0.245117Z" stroke="white"/>
</g>
<path d="M63.5 32C63.5 14.603 49.397 0.5 32 0.5C14.603 0.5 0.5 14.603 0.5 32C0.5 49.397 14.603 63.5 32 63.5C49.397 63.5 63.5 49.397 63.5 32Z" stroke="white"/>
</g>
<defs>
<clipPath id="clip0_131_117">
<rect width="64" height="64" fill="white"/>
</clipPath>
</defs>
</svg>
