<svg width="335" height="102" viewBox="0 0 335 102" fill="none" xmlns="http://www.w3.org/2000/svg">
<path d="M40.0888 100.096C34.6617 100.096 29.9002 99.2504 25.8043 97.5583C21.8108 95.7605 18.6876 92.8523 16.4349 88.8336C14.1821 84.7092 13.0558 79.1042 13.0558 72.0187V38.5474H0V21.4152H13.0558L15.3597 0H33.7914V21.4152H54.0662V38.5474H33.7914V72.3359C33.7914 76.1431 34.5593 78.7869 36.0953 80.2675C37.6313 81.6423 40.2424 82.3297 43.9288 82.3297H53.6054V100.096H40.0888Z" fill="white"/>
<path d="M96.5526 102C88.7703 102 81.8584 100.308 75.8169 96.9238C69.8779 93.5397 65.2188 88.7807 61.8396 82.647C58.4605 76.5132 56.7709 69.4806 56.7709 61.549C56.7709 53.3002 58.4093 46.056 61.686 39.8165C65.0652 33.4712 69.7243 28.5008 75.6634 24.9051C81.7048 21.3095 88.6679 19.5117 96.5526 19.5117C104.232 19.5117 110.939 21.2037 116.674 24.5879C122.408 27.972 126.914 32.6252 130.19 38.5474C133.467 44.3639 135.105 50.9736 135.105 58.3764C135.105 59.4339 135.054 60.6501 134.952 62.0249C134.952 63.2939 134.901 64.6159 134.798 65.9907H71.5162V52.8243H114.063C113.755 47.8538 111.963 43.888 108.687 40.9269C105.512 37.9658 101.519 36.4852 96.7062 36.4852C93.1222 36.4852 89.8455 37.3313 86.8759 39.0233C83.9064 40.6097 81.5512 43.0949 79.8105 46.479C78.0697 49.7574 77.1993 53.9347 77.1993 59.0109V63.6112C77.1993 67.9471 78.0185 71.7014 79.6569 74.874C81.2952 77.9409 83.548 80.3204 86.4151 82.0124C89.3847 83.7045 92.7126 84.5506 96.399 84.5506C100.188 84.5506 103.362 83.7045 105.922 82.0124C108.482 80.2146 110.427 77.9409 111.759 75.1913H132.801C131.368 80.1617 128.962 84.7092 125.582 88.8336C122.203 92.8523 118.056 96.0778 113.141 98.5101C108.226 100.837 102.696 102 96.5526 102Z" fill="white"/>
<path d="M177.936 100.096C172.509 100.096 167.748 99.2504 163.652 97.5583C159.658 95.7605 156.535 92.8523 154.282 88.8336C152.03 84.7092 150.903 79.1042 150.903 72.0187V38.5474H137.847V21.4152H150.903L153.207 0H171.639V21.4152H191.914V38.5474H171.639V72.3359C171.639 76.1431 172.407 78.7869 173.943 80.2675C175.479 81.6423 178.09 82.3297 181.776 82.3297H191.453V100.096H177.936Z" fill="white"/>
<path d="M199.64 100.096V1.20185e-05H220.069V34.5817H220.683C223.345 29.717 226.827 26.0156 231.128 23.4775C235.428 20.8336 240.497 19.5117 246.334 19.5117C252.478 19.5117 257.7 20.9394 262.001 23.7947C266.301 26.5443 269.578 30.6159 271.831 36.0093C274.084 41.4028 275.21 48.0653 275.21 55.9969V100.096H254.628V57.9005C254.628 51.3437 253.348 46.3204 250.788 42.8305C248.33 39.3406 244.337 37.5957 238.807 37.5957C235.224 37.5957 232.049 38.4946 229.284 40.2924C226.52 41.9845 224.318 44.4697 222.68 47.7481C221.144 50.9207 220.376 54.8336 220.376 59.4868V100.096H199.64Z" fill="white"/>
<path d="M286.771 100.096V21.4152H304.434L306.277 38.7061H306.892C309.144 33.1011 311.602 28.9767 314.264 26.3328C316.927 23.5832 319.947 21.7854 323.327 20.9394C326.808 19.9876 330.699 19.5117 335 19.5117V42.196H329.317C325.835 42.196 322.712 42.619 319.947 43.465C317.285 44.2053 315.032 45.4743 313.189 47.2722C311.346 48.9642 309.912 51.2379 308.888 54.0933C307.967 56.9487 307.506 60.3857 307.506 64.4044V100.096H286.771Z" fill="white"/>
</svg>
