<svg width="764" height="739" viewBox="0 0 764 739" fill="none" xmlns="http://www.w3.org/2000/svg">
<g filter="url(#filter0_f_121_58)">
<rect x="338.708" y="186" width="303.385" height="182.292" rx="91.146" transform="rotate(37 338.708 186)" fill="black" fill-opacity="0.01"/>
<rect x="344.12" y="224.512" width="248.385" height="127.292" rx="63.646" transform="rotate(37 344.12 224.512)" stroke="#233D7A" stroke-opacity="0.28" stroke-width="55"/>
</g>
<g filter="url(#filter1_f_121_58)">
<rect x="101.937" width="303.385" height="182.292" rx="91.146" transform="rotate(34 101.937 0)" fill="black" fill-opacity="0.01"/>
<rect x="109.357" y="38.1763" width="248.385" height="127.292" rx="63.646" transform="rotate(34 109.357 38.1763)" stroke="#233D7A" stroke-opacity="0.28" stroke-width="55"/>
</g>
<g filter="url(#filter2_f_121_58)">
<rect x="585.478" y="386" width="303.385" height="182.292" rx="91.146" transform="rotate(54 585.478 386)" fill="black" fill-opacity="0.01"/>
<rect x="579.394" y="424.412" width="248.385" height="127.292" rx="63.646" transform="rotate(54 579.394 424.412)" stroke="#233D7A" stroke-opacity="0.28" stroke-width="55"/>
</g>
<rect x="479.005" y="376" width="133.585" height="51.8308" rx="23.5" transform="rotate(44 479.005 376)" fill="black" fill-opacity="0.01"/>
<rect x="261.617" y="186" width="133.585" height="51.8308" rx="23.5" transform="rotate(39 261.617 186)" fill="black" fill-opacity="0.01"/>
<g filter="url(#filter5_f_121_58)">
<rect x="338.708" y="186" width="303.385" height="182.292" rx="91.146" transform="rotate(37 338.708 186)" fill="black" fill-opacity="0.01"/>
<rect x="344.12" y="224.512" width="248.385" height="127.292" rx="63.646" transform="rotate(37 344.12 224.512)" stroke="#233D7A" stroke-opacity="0.28" stroke-width="55"/>
</g>
<g filter="url(#filter6_f_121_58)">
<rect x="101.937" width="303.385" height="182.292" rx="91.146" transform="rotate(34 101.937 0)" fill="black" fill-opacity="0.01"/>
<rect x="109.357" y="38.1763" width="248.385" height="127.292" rx="63.646" transform="rotate(34 109.357 38.1763)" stroke="#233D7A" stroke-opacity="0.28" stroke-width="55"/>
</g>
<g filter="url(#filter7_f_121_58)">
<rect x="585.478" y="386" width="303.385" height="182.292" rx="91.146" transform="rotate(54 585.478 386)" fill="black" fill-opacity="0.01"/>
<rect x="579.394" y="424.412" width="248.385" height="127.292" rx="63.646" transform="rotate(54 579.394 424.412)" stroke="#233D7A" stroke-opacity="0.28" stroke-width="55"/>
</g>
<rect x="479.005" y="376" width="133.585" height="51.8308" rx="23.5" transform="rotate(44 479.005 376)" fill="black" fill-opacity="0.01"/>
<rect x="261.617" y="186" width="133.585" height="51.8308" rx="23.5" transform="rotate(39 261.617 186)" fill="black" fill-opacity="0.01"/>
<defs>
<filter id="filter0_f_121_58" x="262.096" y="219.094" width="285.812" height="261.978" filterUnits="userSpaceOnUse" color-interpolation-filters="sRGB">
<feFlood flood-opacity="0" result="BackgroundImageFix"/>
<feBlend mode="normal" in="SourceGraphic" in2="BackgroundImageFix" result="shape"/>
<feGaussianBlur stdDeviation="1.7" result="effect1_foregroundBlur_121_58"/>
</filter>
<filter id="filter1_f_121_58" x="31.9765" y="31.9765" width="289.501" height="256.825" filterUnits="userSpaceOnUse" color-interpolation-filters="sRGB">
<feFlood flood-opacity="0" result="BackgroundImageFix"/>
<feBlend mode="normal" in="SourceGraphic" in2="BackgroundImageFix" result="shape"/>
<feGaussianBlur stdDeviation="1.7" result="effect1_foregroundBlur_121_58"/>
</filter>
<filter id="filter2_f_121_58" x="470.761" y="418.761" width="260.281" height="287.071" filterUnits="userSpaceOnUse" color-interpolation-filters="sRGB">
<feFlood flood-opacity="0" result="BackgroundImageFix"/>
<feBlend mode="normal" in="SourceGraphic" in2="BackgroundImageFix" result="shape"/>
<feGaussianBlur stdDeviation="1.7" result="effect1_foregroundBlur_121_58"/>
</filter>
<filter id="filter5_f_121_58" x="262.096" y="219.094" width="285.812" height="261.978" filterUnits="userSpaceOnUse" color-interpolation-filters="sRGB">
<feFlood flood-opacity="0" result="BackgroundImageFix"/>
<feBlend mode="normal" in="SourceGraphic" in2="BackgroundImageFix" result="shape"/>
<feGaussianBlur stdDeviation="1.7" result="effect1_foregroundBlur_121_58"/>
</filter>
<filter id="filter6_f_121_58" x="31.9765" y="31.9765" width="289.501" height="256.825" filterUnits="userSpaceOnUse" color-interpolation-filters="sRGB">
<feFlood flood-opacity="0" result="BackgroundImageFix"/>
<feBlend mode="normal" in="SourceGraphic" in2="BackgroundImageFix" result="shape"/>
<feGaussianBlur stdDeviation="1.7" result="effect1_foregroundBlur_121_58"/>
</filter>
<filter id="filter7_f_121_58" x="470.761" y="418.761" width="260.281" height="287.071" filterUnits="userSpaceOnUse" color-interpolation-filters="sRGB">
<feFlood flood-opacity="0" result="BackgroundImageFix"/>
<feBlend mode="normal" in="SourceGraphic" in2="BackgroundImageFix" result="shape"/>
<feGaussianBlur stdDeviation="1.7" result="effect1_foregroundBlur_121_58"/>
</filter>
</defs>
</svg>
