<svg width="22" height="22" viewBox="0 0 22 22" fill="none" xmlns="http://www.w3.org/2000/svg">
<path d="M3.66667 0C1.64162 0 0 1.64162 0 3.66667V18.3333C0 20.3584 1.64162 22 3.66667 22H18.3333C20.3584 22 22 20.3584 22 18.3333V3.66667C22 1.64162 20.3584 0 18.3333 0H3.66667ZM4.7593 4.71429H8.91704L11.8696 8.90988L15.4524 4.71429H16.7619L12.4609 9.74981L17.7645 17.2857H13.6078L10.1815 12.418L6.02381 17.2857H4.71429L9.59022 11.578L4.7593 4.71429ZM6.76451 5.76191L14.1541 16.2381H15.7593L8.3697 5.76191H6.76451Z" fill="#2B44FF"/>
</svg>
